<?xml version="1.0" encoding="utf-8"?>
<!-- Generator: Adobe Illustrator 14.0.0, SVG Export Plug-In . SVG Version: 6.00 Build 43363)  -->
<!DOCTYPE svg PUBLIC "-//W3C//DTD SVG 1.0//EN" "http://www.w3.org/TR/2001/REC-SVG-20010904/DTD/svg10.dtd">
<svg version="1.0" id="Layer_1" xmlns="http://www.w3.org/2000/svg" xmlns:xlink="http://www.w3.org/1999/xlink" x="0px" y="0px"
	 width="64px" height="64px" viewBox="0 0 64 64" enable-background="new 0 0 64 64" xml:space="preserve">
<g>
	<path fill="#FFFFFF" d="M31.943,0c8.951,0,16.531,3.105,22.742,9.315C60.893,15.487,64,23.048,64,32
		c0,8.954-3.049,16.457-9.145,22.514C48.418,60.838,40.779,64,31.943,64c-8.649,0-16.153-3.143-22.514-9.43
		C3.144,48.286,0,40.764,0,32.001c0-8.723,3.145-16.285,9.43-22.685C15.638,3.105,23.143,0,31.943,0z M32.057,5.772
		c-7.276,0-13.429,2.572-18.457,7.715C8.38,18.783,5.771,24.954,5.771,32c0,7.125,2.59,13.257,7.77,18.4
		c5.182,5.182,11.353,7.771,18.515,7.771c7.123,0,13.334-2.608,18.629-7.827c5.028-4.877,7.543-10.99,7.543-18.344
		c0-7.313-2.554-13.485-7.656-18.513C45.504,8.342,39.332,5.772,32.057,5.772z M17.771,27.485c0.608-3.924,2.188-6.962,4.742-9.114
		c2.552-2.152,5.655-3.228,9.313-3.228c5.027,0,9.029,1.62,12,4.856c2.971,3.238,4.457,7.391,4.457,12.457
		c0,4.915-1.543,9-4.627,12.256c-3.088,3.257-7.086,4.886-12.002,4.886c-3.619,0-6.743-1.084-9.371-3.257
		c-2.629-2.172-4.209-5.257-4.743-9.257h8.06c0.189,3.887,2.532,5.829,7.028,5.829c2.246,0,4.058-0.972,5.429-2.914
		c1.373-1.942,2.059-4.534,2.059-7.771c0-3.391-0.629-5.971-1.885-7.743c-1.258-1.771-3.066-2.657-5.431-2.657
		c-4.268,0-6.667,1.885-7.199,5.656h2.343l-6.342,6.343l-6.344-6.343L17.771,27.485L17.771,27.485z"/>
</g>
</svg>
