<?xml version="1.0" encoding="utf-8"?>
<!-- Generator: Adobe Illustrator 14.0.0, SVG Export Plug-In . SVG Version: 6.00 Build 43363)  -->
<!DOCTYPE svg PUBLIC "-//W3C//DTD SVG 1.0//EN" "http://www.w3.org/TR/2001/REC-SVG-20010904/DTD/svg10.dtd">
<svg version="1.0" id="Ebene_1" xmlns="http://www.w3.org/2000/svg" xmlns:xlink="http://www.w3.org/1999/xlink" x="0px" y="0px"
	 width="418.692px" height="117.271px" viewBox="0 0 418.692 117.271" enable-background="new 0 0 418.692 117.271"
	 xml:space="preserve">
<g>
	<polygon fill="#FFFFFF" points="116.264,68.601 116.264,45.389 121.253,45.389 121.253,55.401 129.044,45.389 134.871,45.389 
		126.341,55.793 135.612,68.601 129.398,68.601 121.253,56.754 121.253,68.601 116.264,68.601 	"/>
	<path fill="#FFFFFF" d="M135.326,57.302c0-3.521,0.816-6.375,2.447-8.564c1.954-2.597,4.862-3.896,8.724-3.896
		c3.606,0,6.331,1.052,8.177,3.156c1.975,2.232,2.961,5.15,2.961,8.756c0,1.738-0.246,3.411-0.74,5.022
		c-0.537,1.695-1.266,3.059-2.189,4.088c-1.975,2.211-4.732,3.315-8.273,3.315c-3.476,0-6.224-1.062-8.241-3.188
		C136.282,63.976,135.326,61.079,135.326,57.302L135.326,57.302z M140.542,57.14c0,2.812,0.58,4.979,1.737,6.504
		c0.944,1.243,2.35,1.867,4.217,1.867c1.953,0,3.402-0.72,4.347-2.158c1.05-1.608,1.576-3.83,1.576-6.664
		c0-1.63-0.192-3.015-0.578-4.152c-0.923-2.747-2.693-4.12-5.312-4.12c-1.803,0-3.23,0.653-4.282,1.963
		C141.11,51.795,140.542,54.049,140.542,57.14L140.542,57.14z"/>
	<polygon fill="#FFFFFF" points="160.951,68.601 160.951,45.325 169.096,45.325 174.021,62.259 179.333,45.325 187.252,45.325 
		187.252,68.601 182.294,68.601 182.294,48.641 175.953,68.601 171.832,68.601 165.619,48.641 165.619,68.601 160.951,68.601 	"/>
	<polygon fill="#FFFFFF" points="191.34,68.601 191.34,45.325 199.484,45.325 204.41,62.259 209.723,45.325 217.638,45.325 
		217.638,68.601 212.683,68.601 212.683,48.641 206.341,68.601 202.221,68.601 196.008,48.641 196.008,68.601 191.34,68.601 	"/>
	<path fill="#FFFFFF" d="M222.115,45.389h4.99v14.165c0,1.739,0.234,3.016,0.708,3.832c0.751,1.266,2.2,1.898,4.347,1.898
		c2.124,0,3.626-0.676,4.506-2.027c0.494-0.752,0.74-2.07,0.74-3.961V45.389h4.861v14.52c0,3.176-1.117,5.57-3.348,7.178
		c-1.824,1.311-4.111,1.965-6.857,1.965c-4.143,0-7.061-1.342-8.756-4.023c-0.795-1.267-1.191-3.178-1.191-5.732V45.389
		L222.115,45.389z"/>
	<polygon fill="#FFFFFF" points="247.154,68.601 247.154,45.325 254.364,45.325 263.088,63.644 263.088,45.325 267.73,45.325 
		267.73,68.601 260.869,68.601 251.853,49.285 251.853,68.601 247.154,68.601 	"/>
	<polygon fill="#FFFFFF" points="271.83,68.601 271.83,45.26 276.817,45.26 276.817,68.601 271.83,68.601 	"/>
	<polygon fill="#FFFFFF" points="280.999,68.601 280.999,45.389 285.991,45.389 285.991,55.401 293.777,45.389 299.605,45.389 
		291.077,55.793 300.345,68.601 294.135,68.601 285.991,56.754 285.991,68.601 280.999,68.601 	"/>
	<path fill="#FFFFFF" d="M308.881,45.325h5.923l8.081,23.275h-5.022l-1.674-5.021h-9.207l-1.738,5.021h-4.763L308.881,45.325
		L308.881,45.325z M308.269,59.812h6.663l-3.215-9.915L308.269,59.812L308.269,59.812z"/>
	<polygon fill="#FFFFFF" points="327.387,68.601 327.387,49.188 320.466,49.188 320.466,45.325 339.329,45.325 339.329,49.188 
		332.41,49.188 332.41,68.601 327.387,68.601 	"/>
	<polygon fill="#FFFFFF" points="341.622,68.601 341.622,45.26 346.608,45.26 346.608,68.601 341.622,68.601 	"/>
	<path fill="#FFFFFF" d="M349.992,57.302c0-3.521,0.813-6.375,2.442-8.564c1.955-2.597,4.86-3.896,8.726-3.896
		c3.608,0,6.332,1.052,8.178,3.156c1.974,2.232,2.962,5.15,2.962,8.756c0,1.738-0.249,3.411-0.742,5.022
		c-0.535,1.695-1.265,3.059-2.187,4.088c-1.976,2.211-4.732,3.315-8.275,3.315c-3.476,0-6.225-1.062-8.239-3.188
		C350.944,63.976,349.992,61.079,349.992,57.302L349.992,57.302z M355.204,57.14c0,2.812,0.58,4.979,1.74,6.504
		c0.944,1.243,2.35,1.867,4.216,1.867c1.953,0,3.401-0.72,4.346-2.158c1.053-1.608,1.58-3.83,1.58-6.664
		c0-1.63-0.195-3.015-0.581-4.152c-0.922-2.747-2.693-4.12-5.312-4.12c-1.802,0-3.23,0.653-4.28,1.963
		C355.774,51.795,355.204,54.049,355.204,57.14L355.204,57.14z"/>
	<polygon fill="#FFFFFF" points="375.995,68.601 375.995,45.325 383.206,45.325 391.929,63.644 391.929,45.325 396.567,45.325 
		396.567,68.601 389.708,68.601 380.695,49.285 380.695,68.601 375.995,68.601 	"/>
	<path fill="#FFFFFF" d="M399.856,61.165h5.084c0,2.939,1.405,4.409,4.218,4.409c1.352,0,2.424-0.294,3.22-0.886
		c0.797-0.59,1.19-1.379,1.19-2.365c0-0.945-0.366-1.631-1.093-2.062c-0.474-0.277-1.576-0.634-3.317-1.062
		c-2.961-0.729-5.086-1.578-6.373-2.544c-1.462-1.093-2.188-2.597-2.188-4.506c0-2.082,0.727-3.766,2.188-5.054
		c1.63-1.438,3.973-2.156,7.019-2.156c3.243,0,5.577,0.912,7.016,2.735c0.881,1.117,1.321,2.555,1.321,4.314h-4.797
		c-0.192-2.361-1.449-3.542-3.769-3.542c-1.156,0-2.086,0.29-2.782,0.87c-0.698,0.579-1.047,1.341-1.047,2.286
		c0,0.986,0.418,1.717,1.255,2.189c0.558,0.322,1.824,0.719,3.801,1.19c2.618,0.644,4.451,1.298,5.503,1.965
		c1.653,1.072,2.48,2.618,2.48,4.636c0,2.189-0.847,3.971-2.544,5.343c-1.803,1.482-4.262,2.223-7.372,2.223
		c-3.842,0-6.45-1.054-7.822-3.156C400.273,64.856,399.875,63.245,399.856,61.165L399.856,61.165z"/>
	<path fill="#FFFFFF" d="M90.423,14.274l-11.265,6.503c-1.14-1.975-1.743-4.222-1.743-6.503c0-7.182,5.825-13.007,13.007-13.007
		c7.182,0,13.005,5.825,13.005,13.007c0,7.18-5.823,13.005-13.005,13.005V14.274L90.423,14.274z"/>
	<path fill="#FFFFFF" d="M13.093,58.817l11.265,6.504c-1.141,1.975-2.786,3.619-4.762,4.758C13.376,73.671,5.42,71.54,1.829,65.321
		c-3.59-6.221-1.458-14.177,4.761-17.768c6.22-3.591,14.176-1.459,17.767,4.76L13.093,58.817L13.093,58.817z"/>
	<path fill="#FFFFFF" d="M90.431,103.26V90.251c2.282,0,4.528,0.604,6.504,1.743c6.219,3.594,8.351,11.547,4.76,17.767
		c-3.591,6.223-11.547,8.353-17.766,4.761c-6.221-3.591-8.352-11.546-4.761-17.766L90.431,103.26L90.431,103.26z"/>
	<polygon fill="#FFFFFF" points="143.367,29.979 143.367,12.294 147.238,12.294 147.238,26.965 154.829,26.965 154.829,29.979 
		143.367,29.979 	"/>
	<polygon fill="#FFFFFF" points="157.107,29.979 157.107,12.271 168.962,12.271 168.962,15.159 160.904,15.159 160.904,19.374 
		168.448,19.374 168.448,22.263 160.904,22.263 160.904,27.04 169.231,27.04 169.231,29.979 157.107,29.979 	"/>
	<polygon fill="#FFFFFF" points="171.905,29.979 171.905,12.271 175.702,12.271 175.702,19.349 182.437,19.349 182.437,12.271 
		186.233,12.271 186.233,29.979 182.437,29.979 182.437,22.215 175.702,22.215 175.702,29.979 171.905,29.979 	"/>
	<path fill="#FFFFFF" d="M189.414,29.979V12.271h6.784c1.339,0,2.303,0.048,2.891,0.146c1.029,0.163,1.853,0.513,2.473,1.053
		c1.029,0.88,1.543,2.017,1.543,3.404c0,2.189-1.232,3.634-3.699,4.335c1.209,0.115,2.033,0.531,2.474,1.25
		c0.278,0.474,0.516,1.412,0.711,2.817c0.245,1.83,0.428,2.979,0.551,3.454c0.122,0.474,0.298,0.89,0.526,1.249h-4.187
		c-0.245-1.812-0.564-3.861-0.956-6.147c-0.229-0.67-0.866-1.004-1.911-1.004h-3.332v7.151H189.414L189.414,29.979z M193.161,15.062
		v4.948h3.062c0.865,0,1.51-0.164,1.935-0.49c0.654-0.507,0.98-1.191,0.98-2.057c0-0.898-0.31-1.56-0.931-1.984
		c-0.409-0.278-1.241-0.417-2.499-0.417H193.161L193.161,15.062z"/>
	<path fill="#FFFFFF" d="M204.897,24.321h3.87c0,2.236,1.07,3.355,3.209,3.355c1.027,0,1.844-0.225,2.449-0.673
		c0.604-0.45,0.906-1.049,0.906-1.801c0-0.718-0.277-1.241-0.834-1.567c-0.358-0.212-1.201-0.482-2.521-0.808
		c-2.253-0.556-3.87-1.201-4.85-1.935c-1.11-0.833-1.666-1.977-1.666-3.429c0-1.584,0.556-2.867,1.666-3.847
		c1.241-1.093,3.021-1.64,5.339-1.64c2.466,0,4.245,0.694,5.339,2.083c0.67,0.848,1.004,1.942,1.004,3.281h-3.649
		c-0.146-1.795-1.102-2.694-2.865-2.694c-0.882,0-1.587,0.221-2.119,0.66c-0.53,0.441-0.795,1.02-0.795,1.74
		c0,0.751,0.318,1.307,0.956,1.665c0.424,0.245,1.387,0.547,2.889,0.907c1.992,0.49,3.39,0.988,4.189,1.495
		c1.256,0.816,1.885,1.992,1.885,3.526c0,1.667-0.646,3.022-1.934,4.066c-1.373,1.126-3.242,1.69-5.61,1.69
		c-2.922,0-4.906-0.8-5.951-2.4C205.215,27.13,204.914,25.904,204.897,24.321L204.897,24.321z"/>
	<polygon fill="#FFFFFF" points="225.492,29.979 225.492,15.208 220.226,15.208 220.226,12.271 234.578,12.271 234.578,15.208 
		229.312,15.208 229.312,29.979 225.492,29.979 	"/>
	<path fill="#FFFFFF" d="M236.615,12.318h3.797v10.777c0,1.323,0.18,2.294,0.54,2.915c0.57,0.963,1.673,1.445,3.305,1.445
		c1.617,0,2.76-0.514,3.429-1.543c0.375-0.571,0.562-1.576,0.562-3.012V12.318h3.699v11.047c0,2.417-0.848,4.238-2.545,5.463
		c-1.39,0.997-3.128,1.494-5.219,1.494c-3.15,0-5.371-1.021-6.662-3.062c-0.604-0.962-0.906-2.417-0.906-4.359V12.318
		L236.615,12.318z"/>
	<polygon fill="#FFFFFF" points="255.548,29.979 255.548,12.271 259.344,12.271 259.344,19.349 266.083,19.349 266.083,12.271 
		269.884,12.271 269.884,29.979 266.083,29.979 266.083,22.215 259.344,22.215 259.344,29.979 255.548,29.979 	"/>
	<polygon fill="#FFFFFF" points="273.289,29.979 273.289,12.294 277.157,12.294 277.157,26.965 284.751,26.965 284.751,29.979 
		273.289,29.979 	"/>
	<path fill="#FFFFFF" d="M149.943,81.773h5.923l8.082,23.277h-5.023l-1.674-5.021h-9.206l-1.739,5.021h-4.764L149.943,81.773
		L149.943,81.773z M149.333,96.259h6.663l-3.219-9.913L149.333,96.259L149.333,96.259z"/>
	<polygon fill="#FFFFFF" points="166.775,105.051 166.775,81.838 171.764,81.838 171.764,91.852 179.554,81.838 185.381,81.838 
		176.851,92.243 186.122,105.051 179.909,105.051 171.764,93.2 171.764,105.051 166.775,105.051 	"/>
	<path fill="#FFFFFF" d="M188.413,81.838h4.99v14.165c0,1.738,0.237,3.018,0.708,3.832c0.751,1.265,2.2,1.899,4.347,1.899
		c2.124,0,3.625-0.676,4.506-2.03c0.493-0.75,0.74-2.068,0.74-3.957V81.838h4.861v14.521c0,3.174-1.117,5.567-3.348,7.178
		c-1.824,1.311-4.109,1.963-6.857,1.963c-4.141,0-7.06-1.341-8.756-4.023c-0.793-1.268-1.191-3.177-1.191-5.729V81.838
		L188.413,81.838z"/>
	<path fill="#FFFFFF" d="M212.265,97.613h5.088c0,2.938,1.404,4.41,4.217,4.41c1.352,0,2.424-0.295,3.219-0.886
		c0.794-0.589,1.191-1.38,1.191-2.368c0-0.941-0.365-1.63-1.096-2.058c-0.471-0.281-1.576-0.635-3.314-1.064
		c-2.961-0.729-5.086-1.574-6.375-2.54c-1.459-1.098-2.188-2.598-2.188-4.51c0-2.081,0.729-3.765,2.188-5.055
		c1.631-1.437,3.972-2.155,7.02-2.155c3.24,0,5.578,0.911,7.018,2.735c0.879,1.114,1.318,2.555,1.318,4.313h-4.795
		c-0.193-2.362-1.449-3.54-3.769-3.54c-1.157,0-2.087,0.289-2.784,0.868c-0.697,0.581-1.045,1.344-1.045,2.285
		c0,0.988,0.418,1.718,1.256,2.191c0.557,0.32,1.823,0.717,3.797,1.192c2.619,0.641,4.453,1.298,5.506,1.961
		c1.651,1.075,2.479,2.618,2.479,4.638c0,2.188-0.848,3.968-2.544,5.345c-1.803,1.478-4.259,2.222-7.371,2.222
		c-3.842,0-6.448-1.055-7.823-3.158C212.685,101.304,212.287,99.694,212.265,97.613L212.265,97.613z"/>
	<polygon fill="#FFFFFF" points="239.334,105.051 239.334,85.637 232.414,85.637 232.414,81.773 251.277,81.773 251.277,85.637 
		244.357,85.637 244.357,105.051 239.334,105.051 	"/>
	<polygon fill="#FFFFFF" points="253.568,105.051 253.568,81.71 258.558,81.71 258.558,105.051 253.568,105.051 	"/>
	<polygon fill="#FFFFFF" points="262.737,105.051 262.737,81.838 267.731,81.838 267.731,91.852 275.528,81.838 281.352,81.838 
		272.823,92.243 282.094,105.051 275.882,105.051 267.731,93.2 267.731,105.051 262.737,105.051 	"/>
	<polygon fill="#FFFFFF" points="25.783,58.917 34.531,53.865 83.448,82.196 83.486,92.319 25.783,58.917 	"/>
	<polygon fill="#FFFFFF" points="63.493,23.971 54.745,28.814 54.824,88.989 63.571,94.121 63.493,23.971 	"/>
	<polygon fill="#FFFFFF" points="83.494,25.601 25.783,58.917 34.531,63.966 83.476,35.712 83.494,25.601 	"/>
</g>
</svg>
