<?xml version="1.0" encoding="utf-8"?>
<!-- Generator: Adobe Illustrator 14.0.0, SVG Export Plug-In . SVG Version: 6.00 Build 43363)  -->
<!DOCTYPE svg PUBLIC "-//W3C//DTD SVG 1.1//EN" "http://www.w3.org/Graphics/SVG/1.1/DTD/svg11.dtd" [
	<!ENTITY ns_extend "http://ns.adobe.com/Extensibility/1.0/">
	<!ENTITY ns_ai "http://ns.adobe.com/AdobeIllustrator/10.0/">
	<!ENTITY ns_graphs "http://ns.adobe.com/Graphs/1.0/">
	<!ENTITY ns_vars "http://ns.adobe.com/Variables/1.0/">
	<!ENTITY ns_imrep "http://ns.adobe.com/ImageReplacement/1.0/">
	<!ENTITY ns_sfw "http://ns.adobe.com/SaveForWeb/1.0/">
	<!ENTITY ns_custom "http://ns.adobe.com/GenericCustomNamespace/1.0/">
	<!ENTITY ns_adobe_xpath "http://ns.adobe.com/XPath/1.0/">
]>
<svg version="1.1" id="Ebene_1" xmlns:x="&ns_extend;" xmlns:i="&ns_ai;" xmlns:graph="&ns_graphs;"
	 xmlns="http://www.w3.org/2000/svg" xmlns:xlink="http://www.w3.org/1999/xlink" x="0px" y="0px" width="612px" height="792px"
	 viewBox="0 0 612 792" enable-background="new 0 0 612 792" xml:space="preserve">
<metadata><?xpacket begin="﻿" id="W5M0MpCehiHzreSzNTczkc9d"?>
<x:xmpmeta xmlns:x="adobe:ns:meta/" x:xmptk="Adobe XMP Core 4.2.2-c063 53.352624, 2008/07/30-18:05:41        ">
   <rdf:RDF xmlns:rdf="http://www.w3.org/1999/02/22-rdf-syntax-ns#">
      <rdf:Description rdf:about=""
            xmlns:xmp="http://ns.adobe.com/xap/1.0/"
            xmlns:xmpGImg="http://ns.adobe.com/xap/1.0/g/img/">
         <xmp:CreatorTool>Illustrator</xmp:CreatorTool>
         <xmp:ModifyDate>2006-03-17T16:02:26Z</xmp:ModifyDate>
         <xmp:CreateDate>2006-03-17T16:02:26Z</xmp:CreateDate>
         <xmp:Thumbnails>
            <rdf:Alt>
               <rdf:li rdf:parseType="Resource">
                  <xmpGImg:width>256</xmpGImg:width>
                  <xmpGImg:height>76</xmpGImg:height>
                  <xmpGImg:format>JPEG</xmpGImg:format>
                  <xmpGImg:image>/9j/4AAQSkZJRgABAgEASABIAAD/7QAsUGhvdG9zaG9wIDMuMAA4QklNA+0AAAAAABAASAAAAAEA&#xA;AQBIAAAAAQAB/+4ADkFkb2JlAGTAAAAAAf/bAIQABgQEBAUEBgUFBgkGBQYJCwgGBggLDAoKCwoK&#xA;DBAMDAwMDAwQDA4PEA8ODBMTFBQTExwbGxscHx8fHx8fHx8fHwEHBwcNDA0YEBAYGhURFRofHx8f&#xA;Hx8fHx8fHx8fHx8fHx8fHx8fHx8fHx8fHx8fHx8fHx8fHx8fHx8fHx8fHx8f/8AAEQgATAEAAwER&#xA;AAIRAQMRAf/EAaIAAAAHAQEBAQEAAAAAAAAAAAQFAwIGAQAHCAkKCwEAAgIDAQEBAQEAAAAAAAAA&#xA;AQACAwQFBgcICQoLEAACAQMDAgQCBgcDBAIGAnMBAgMRBAAFIRIxQVEGE2EicYEUMpGhBxWxQiPB&#xA;UtHhMxZi8CRygvElQzRTkqKyY3PCNUQnk6OzNhdUZHTD0uIIJoMJChgZhJRFRqS0VtNVKBry4/PE&#xA;1OT0ZXWFlaW1xdXl9WZ2hpamtsbW5vY3R1dnd4eXp7fH1+f3OEhYaHiImKi4yNjo+Ck5SVlpeYmZ&#xA;qbnJ2en5KjpKWmp6ipqqusra6voRAAICAQIDBQUEBQYECAMDbQEAAhEDBCESMUEFURNhIgZxgZEy&#xA;obHwFMHR4SNCFVJicvEzJDRDghaSUyWiY7LCB3PSNeJEgxdUkwgJChgZJjZFGidkdFU38qOzwygp&#xA;0+PzhJSktMTU5PRldYWVpbXF1eX1RlZmdoaWprbG1ub2R1dnd4eXp7fH1+f3OEhYaHiImKi4yNjo&#xA;+DlJWWl5iZmpucnZ6fkqOkpaanqKmqq6ytrq+v/aAAwDAQACEQMRAD8A9U4q7FXYq7FXYq7FXYq7&#xA;FXYq7FXYq7FXYq7FXYq7FXYq7FXYq7FXYq7FXYq7FXYq7FXYq7FXYq7FXYq7FXYq7FXYq7FXYq7F&#xA;XYq7FXYq7FXYq7FXYq7FXYq7FXYq7FXYq7FXYq7FXYq7FXYq7FXYq7FXYq7FXYq7FXYq7FXYq7FX&#xA;Yq7FXYq7FXYq7FXYq7FXYq7FXYq7FXYq7FXYq7FXYq7FXYq7FXYq7FXYq7FXYq7FXYq7FXYq7FXY&#xA;q7FXYq7FXYq7FXYq7FXYq7FXYq7FXYq7FXYq7FXYq7FXYq7FXYq7FXYq7FXYq7FXYq7FXYq7FXYq&#xA;7FXYq7FXYq7FXYq7FXYq7FXYq7FXYq7FXYq7FXYq7FXYq7FXYq7FXYq7FXYq7FXYq7FXYq7FXYq7&#xA;FXYq7FXYq7FXYq7FXYq7FXYq7FXYq7FXYq7FXYq7FXYq7FXYq7FXYq7FXYq7FXYq7FXYq7FXYq7F&#xA;XYq7FXYq7FXYq7FXYq7FXYq7FXYq7FXYq7FXYq7FXYq7FXYq7FXYq7FXYq7FXYq7FXYq7FXYq7FX&#xA;Yq7FXYq7FXYq7FXYq7FXYq7FXYq7FXYq7FXYq7FXYq7FXYq7FXYq7FXYq7FXYq7FXYq7FXYq7FXY&#xA;q7FXYq7FXYq7FXYq7FXYq7FXYq7FXYq7FXYq7FXYq7FXYq7FXYq7FXYq7FXYq7FXYq7FXYq7FXYq&#xA;7FXYq7FXYq7FXYq7FXYq7FXYq7FXYq7FXYq7FXYq7FXYq7FXYq7FXYq7FXYq7FXYq7FXYq7FXYq7&#xA;FXYq7FXYq7FXYq7FXYq7FX//2Q==</xmpGImg:image>
               </rdf:li>
            </rdf:Alt>
         </xmp:Thumbnails>
      </rdf:Description>
      <rdf:Description rdf:about=""
            xmlns:dc="http://purl.org/dc/elements/1.1/">
         <dc:format>image/svg+xml</dc:format>
      </rdf:Description>
      <rdf:Description rdf:about=""
            xmlns:xmpTPg="http://ns.adobe.com/xap/1.0/t/pg/"
            xmlns:stDim="http://ns.adobe.com/xap/1.0/sType/Dimensions#"
            xmlns:xmpG="http://ns.adobe.com/xap/1.0/g/">
         <xmpTPg:MaxPageSize rdf:parseType="Resource">
            <stDim:w>612.000000</stDim:w>
            <stDim:h>792.000000</stDim:h>
            <stDim:unit>Points</stDim:unit>
         </xmpTPg:MaxPageSize>
         <xmpTPg:NPages>1</xmpTPg:NPages>
         <xmpTPg:HasVisibleTransparency>False</xmpTPg:HasVisibleTransparency>
         <xmpTPg:HasVisibleOverprint>False</xmpTPg:HasVisibleOverprint>
         <xmpTPg:PlateNames>
            <rdf:Seq>
               <rdf:li>Cyan</rdf:li>
               <rdf:li>Magenta</rdf:li>
               <rdf:li>Yellow</rdf:li>
               <rdf:li>Black</rdf:li>
            </rdf:Seq>
         </xmpTPg:PlateNames>
         <xmpTPg:SwatchGroups>
            <rdf:Seq>
               <rdf:li rdf:parseType="Resource">
                  <xmpG:groupName>Standard-Farbfeldgruppe</xmpG:groupName>
                  <xmpG:groupType>0</xmpG:groupType>
                  <xmpG:Colorants>
                     <rdf:Seq>
                        <rdf:li rdf:parseType="Resource">
                           <xmpG:swatchName>Weiﬂ</xmpG:swatchName>
                           <xmpG:mode>RGB</xmpG:mode>
                           <xmpG:type>PROCESS</xmpG:type>
                           <xmpG:red>255</xmpG:red>
                           <xmpG:green>255</xmpG:green>
                           <xmpG:blue>255</xmpG:blue>
                        </rdf:li>
                        <rdf:li rdf:parseType="Resource">
                           <xmpG:swatchName>Schwarz</xmpG:swatchName>
                           <xmpG:mode>RGB</xmpG:mode>
                           <xmpG:type>PROCESS</xmpG:type>
                           <xmpG:red>0</xmpG:red>
                           <xmpG:green>0</xmpG:green>
                           <xmpG:blue>0</xmpG:blue>
                        </rdf:li>
                        <rdf:li rdf:parseType="Resource">
                           <xmpG:swatchName>Purpurrot</xmpG:swatchName>
                           <xmpG:mode>RGB</xmpG:mode>
                           <xmpG:type>PROCESS</xmpG:type>
                           <xmpG:red>151</xmpG:red>
                           <xmpG:green>15</xmpG:green>
                           <xmpG:blue>0</xmpG:blue>
                        </rdf:li>
                        <rdf:li rdf:parseType="Resource">
                           <xmpG:swatchName>Marokkanischer Rost</xmpG:swatchName>
                           <xmpG:mode>RGB</xmpG:mode>
                           <xmpG:type>PROCESS</xmpG:type>
                           <xmpG:red>186</xmpG:red>
                           <xmpG:green>0</xmpG:green>
                           <xmpG:blue>0</xmpG:blue>
                        </rdf:li>
                        <rdf:li rdf:parseType="Resource">
                           <xmpG:swatchName>Magenta</xmpG:swatchName>
                           <xmpG:mode>RGB</xmpG:mode>
                           <xmpG:type>PROCESS</xmpG:type>
                           <xmpG:red>228</xmpG:red>
                           <xmpG:green>27</xmpG:green>
                           <xmpG:blue>91</xmpG:blue>
                        </rdf:li>
                        <rdf:li rdf:parseType="Resource">
                           <xmpG:swatchName>Va Va Va Voom-Rot</xmpG:swatchName>
                           <xmpG:mode>RGB</xmpG:mode>
                           <xmpG:type>PROCESS</xmpG:type>
                           <xmpG:red>255</xmpG:red>
                           <xmpG:green>26</xmpG:green>
                           <xmpG:blue>0</xmpG:blue>
                        </rdf:li>
                        <rdf:li rdf:parseType="Resource">
                           <xmpG:swatchName>Orange</xmpG:swatchName>
                           <xmpG:mode>RGB</xmpG:mode>
                           <xmpG:type>PROCESS</xmpG:type>
                           <xmpG:red>255</xmpG:red>
                           <xmpG:green>153</xmpG:green>
                           <xmpG:blue>0</xmpG:blue>
                        </rdf:li>
                        <rdf:li rdf:parseType="Resource">
                           <xmpG:swatchName>Vanillepudding</xmpG:swatchName>
                           <xmpG:mode>RGB</xmpG:mode>
                           <xmpG:type>PROCESS</xmpG:type>
                           <xmpG:red>254</xmpG:red>
                           <xmpG:green>222</xmpG:green>
                           <xmpG:blue>88</xmpG:blue>
                        </rdf:li>
                        <rdf:li rdf:parseType="Resource">
                           <xmpG:swatchName>Kanariengelb</xmpG:swatchName>
                           <xmpG:mode>RGB</xmpG:mode>
                           <xmpG:type>PROCESS</xmpG:type>
                           <xmpG:red>255</xmpG:red>
                           <xmpG:green>255</xmpG:green>
                           <xmpG:blue>62</xmpG:blue>
                        </rdf:li>
                        <rdf:li rdf:parseType="Resource">
                           <xmpG:swatchName>Kubanische Limone</xmpG:swatchName>
                           <xmpG:mode>RGB</xmpG:mode>
                           <xmpG:type>PROCESS</xmpG:type>
                           <xmpG:red>204</xmpG:red>
                           <xmpG:green>255</xmpG:green>
                           <xmpG:blue>66</xmpG:blue>
                        </rdf:li>
                        <rdf:li rdf:parseType="Resource">
                           <xmpG:swatchName>Getrockneter Salbei</xmpG:swatchName>
                           <xmpG:mode>RGB</xmpG:mode>
                           <xmpG:type>PROCESS</xmpG:type>
                           <xmpG:red>163</xmpG:red>
                           <xmpG:green>195</xmpG:green>
                           <xmpG:blue>128</xmpG:blue>
                        </rdf:li>
                        <rdf:li rdf:parseType="Resource">
                           <xmpG:swatchName>Calypsogr¸n</xmpG:swatchName>
                           <xmpG:mode>RGB</xmpG:mode>
                           <xmpG:type>PROCESS</xmpG:type>
                           <xmpG:red>115</xmpG:red>
                           <xmpG:green>190</xmpG:green>
                           <xmpG:blue>30</xmpG:blue>
                        </rdf:li>
                        <rdf:li rdf:parseType="Resource">
                           <xmpG:swatchName>Springfield-Gr¸n</xmpG:swatchName>
                           <xmpG:mode>RGB</xmpG:mode>
                           <xmpG:type>PROCESS</xmpG:type>
                           <xmpG:red>0</xmpG:red>
                           <xmpG:green>255</xmpG:green>
                           <xmpG:blue>0</xmpG:blue>
                        </rdf:li>
                        <rdf:li rdf:parseType="Resource">
                           <xmpG:swatchName>Weihnachtsgr¸n</xmpG:swatchName>
                           <xmpG:mode>RGB</xmpG:mode>
                           <xmpG:type>PROCESS</xmpG:type>
                           <xmpG:red>1</xmpG:red>
                           <xmpG:green>173</xmpG:green>
                           <xmpG:blue>78</xmpG:blue>
                        </rdf:li>
                        <rdf:li rdf:parseType="Resource">
                           <xmpG:swatchName>Kiefer</xmpG:swatchName>
                           <xmpG:mode>RGB</xmpG:mode>
                           <xmpG:type>PROCESS</xmpG:type>
                           <xmpG:red>0</xmpG:red>
                           <xmpG:green>84</xmpG:green>
                           <xmpG:blue>71</xmpG:blue>
                        </rdf:li>
                        <rdf:li rdf:parseType="Resource">
                           <xmpG:swatchName>Himmelsblau</xmpG:swatchName>
                           <xmpG:mode>RGB</xmpG:mode>
                           <xmpG:type>PROCESS</xmpG:type>
                           <xmpG:red>138</xmpG:red>
                           <xmpG:green>219</xmpG:green>
                           <xmpG:blue>255</xmpG:blue>
                        </rdf:li>
                        <rdf:li rdf:parseType="Resource">
                           <xmpG:swatchName>ƒg‰isches Meer</xmpG:swatchName>
                           <xmpG:mode>RGB</xmpG:mode>
                           <xmpG:type>PROCESS</xmpG:type>
                           <xmpG:red>0</xmpG:red>
                           <xmpG:green>160</xmpG:green>
                           <xmpG:blue>198</xmpG:blue>
                        </rdf:li>
                        <rdf:li rdf:parseType="Resource">
                           <xmpG:swatchName>Jeans</xmpG:swatchName>
                           <xmpG:mode>RGB</xmpG:mode>
                           <xmpG:type>PROCESS</xmpG:type>
                           <xmpG:red>2</xmpG:red>
                           <xmpG:green>122</xmpG:green>
                           <xmpG:blue>187</xmpG:blue>
                        </rdf:li>
                        <rdf:li rdf:parseType="Resource">
                           <xmpG:swatchName>St. Petersburg-Blau</xmpG:swatchName>
                           <xmpG:mode>RGB</xmpG:mode>
                           <xmpG:type>PROCESS</xmpG:type>
                           <xmpG:red>10</xmpG:red>
                           <xmpG:green>80</xmpG:green>
                           <xmpG:blue>255</xmpG:blue>
                        </rdf:li>
                        <rdf:li rdf:parseType="Resource">
                           <xmpG:swatchName>Immergr¸n</xmpG:swatchName>
                           <xmpG:mode>RGB</xmpG:mode>
                           <xmpG:type>PROCESS</xmpG:type>
                           <xmpG:red>128</xmpG:red>
                           <xmpG:green>141</xmpG:green>
                           <xmpG:blue>255</xmpG:blue>
                        </rdf:li>
                        <rdf:li rdf:parseType="Resource">
                           <xmpG:swatchName>Maltesischer Flieder</xmpG:swatchName>
                           <xmpG:mode>RGB</xmpG:mode>
                           <xmpG:type>PROCESS</xmpG:type>
                           <xmpG:red>204</xmpG:red>
                           <xmpG:green>204</xmpG:green>
                           <xmpG:blue>255</xmpG:blue>
                        </rdf:li>
                        <rdf:li rdf:parseType="Resource">
                           <xmpG:swatchName>Leidenschaftliches Pur</xmpG:swatchName>
                           <xmpG:mode>RGB</xmpG:mode>
                           <xmpG:type>PROCESS</xmpG:type>
                           <xmpG:red>186</xmpG:red>
                           <xmpG:green>0</xmpG:green>
                           <xmpG:blue>255</xmpG:blue>
                        </rdf:li>
                        <rdf:li rdf:parseType="Resource">
                           <xmpG:swatchName>Knallrosa</xmpG:swatchName>
                           <xmpG:mode>RGB</xmpG:mode>
                           <xmpG:type>PROCESS</xmpG:type>
                           <xmpG:red>255</xmpG:red>
                           <xmpG:green>102</xmpG:green>
                           <xmpG:blue>255</xmpG:blue>
                        </rdf:li>
                        <rdf:li rdf:parseType="Resource">
                           <xmpG:swatchName>Kaugummirosa</xmpG:swatchName>
                           <xmpG:mode>RGB</xmpG:mode>
                           <xmpG:type>PROCESS</xmpG:type>
                           <xmpG:red>251</xmpG:red>
                           <xmpG:green>174</xmpG:green>
                           <xmpG:blue>255</xmpG:blue>
                        </rdf:li>
                        <rdf:li rdf:parseType="Resource">
                           <xmpG:swatchName>Biskuitporzellan</xmpG:swatchName>
                           <xmpG:mode>RGB</xmpG:mode>
                           <xmpG:type>PROCESS</xmpG:type>
                           <xmpG:red>231</xmpG:red>
                           <xmpG:green>185</xmpG:green>
                           <xmpG:blue>138</xmpG:blue>
                        </rdf:li>
                        <rdf:li rdf:parseType="Resource">
                           <xmpG:swatchName>Milchkaffee</xmpG:swatchName>
                           <xmpG:mode>RGB</xmpG:mode>
                           <xmpG:type>PROCESS</xmpG:type>
                           <xmpG:red>169</xmpG:red>
                           <xmpG:green>119</xmpG:green>
                           <xmpG:blue>93</xmpG:blue>
                        </rdf:li>
                        <rdf:li rdf:parseType="Resource">
                           <xmpG:swatchName>Global Malz</xmpG:swatchName>
                           <xmpG:mode>RGB</xmpG:mode>
                           <xmpG:type>PROCESS</xmpG:type>
                           <xmpG:red>138</xmpG:red>
                           <xmpG:green>100</xmpG:green>
                           <xmpG:blue>74</xmpG:blue>
                        </rdf:li>
                        <rdf:li rdf:parseType="Resource">
                           <xmpG:swatchName>Mokka</xmpG:swatchName>
                           <xmpG:mode>RGB</xmpG:mode>
                           <xmpG:type>PROCESS</xmpG:type>
                           <xmpG:red>90</xmpG:red>
                           <xmpG:green>61</xmpG:green>
                           <xmpG:blue>27</xmpG:blue>
                        </rdf:li>
                        <rdf:li rdf:parseType="Resource">
                           <xmpG:swatchName>Global schwarz</xmpG:swatchName>
                           <xmpG:type>PROCESS</xmpG:type>
                           <xmpG:tint>100.000000</xmpG:tint>
                           <xmpG:mode>RGB</xmpG:mode>
                           <xmpG:red>0</xmpG:red>
                           <xmpG:green>0</xmpG:green>
                           <xmpG:blue>0</xmpG:blue>
                        </rdf:li>
                        <rdf:li rdf:parseType="Resource">
                           <xmpG:swatchName>Global Rost</xmpG:swatchName>
                           <xmpG:type>PROCESS</xmpG:type>
                           <xmpG:tint>100.000000</xmpG:tint>
                           <xmpG:mode>RGB</xmpG:mode>
                           <xmpG:red>185</xmpG:red>
                           <xmpG:green>0</xmpG:green>
                           <xmpG:blue>0</xmpG:blue>
                        </rdf:li>
                        <rdf:li rdf:parseType="Resource">
                           <xmpG:swatchName>Global Orange</xmpG:swatchName>
                           <xmpG:type>PROCESS</xmpG:type>
                           <xmpG:tint>100.000000</xmpG:tint>
                           <xmpG:mode>RGB</xmpG:mode>
                           <xmpG:red>255</xmpG:red>
                           <xmpG:green>153</xmpG:green>
                           <xmpG:blue>0</xmpG:blue>
                        </rdf:li>
                        <rdf:li rdf:parseType="Resource">
                           <xmpG:swatchName>Global gelb</xmpG:swatchName>
                           <xmpG:type>PROCESS</xmpG:type>
                           <xmpG:tint>100.000000</xmpG:tint>
                           <xmpG:mode>RGB</xmpG:mode>
                           <xmpG:red>255</xmpG:red>
                           <xmpG:green>255</xmpG:green>
                           <xmpG:blue>61</xmpG:blue>
                        </rdf:li>
                        <rdf:li rdf:parseType="Resource">
                           <xmpG:swatchName>Global gr¸n</xmpG:swatchName>
                           <xmpG:type>PROCESS</xmpG:type>
                           <xmpG:tint>100.000000</xmpG:tint>
                           <xmpG:mode>RGB</xmpG:mode>
                           <xmpG:red>115</xmpG:red>
                           <xmpG:green>190</xmpG:green>
                           <xmpG:blue>29</xmpG:blue>
                        </rdf:li>
                        <rdf:li rdf:parseType="Resource">
                           <xmpG:swatchName>Global Himmel</xmpG:swatchName>
                           <xmpG:type>PROCESS</xmpG:type>
                           <xmpG:tint>100.000000</xmpG:tint>
                           <xmpG:mode>RGB</xmpG:mode>
                           <xmpG:red>138</xmpG:red>
                           <xmpG:green>218</xmpG:green>
                           <xmpG:blue>255</xmpG:blue>
                        </rdf:li>
                        <rdf:li rdf:parseType="Resource">
                           <xmpG:swatchName>Global Meer</xmpG:swatchName>
                           <xmpG:type>PROCESS</xmpG:type>
                           <xmpG:tint>100.000000</xmpG:tint>
                           <xmpG:mode>RGB</xmpG:mode>
                           <xmpG:red>0</xmpG:red>
                           <xmpG:green>160</xmpG:green>
                           <xmpG:blue>198</xmpG:blue>
                        </rdf:li>
                        <rdf:li rdf:parseType="Resource">
                           <xmpG:swatchName>Global Flieder</xmpG:swatchName>
                           <xmpG:type>PROCESS</xmpG:type>
                           <xmpG:tint>100.000000</xmpG:tint>
                           <xmpG:mode>RGB</xmpG:mode>
                           <xmpG:red>204</xmpG:red>
                           <xmpG:green>204</xmpG:green>
                           <xmpG:blue>255</xmpG:blue>
                        </rdf:li>
                        <rdf:li rdf:parseType="Resource">
                           <xmpG:swatchName>Global Immergr¸n</xmpG:swatchName>
                           <xmpG:type>PROCESS</xmpG:type>
                           <xmpG:tint>100.000000</xmpG:tint>
                           <xmpG:mode>RGB</xmpG:mode>
                           <xmpG:red>128</xmpG:red>
                           <xmpG:green>140</xmpG:green>
                           <xmpG:blue>255</xmpG:blue>
                        </rdf:li>
                        <rdf:li rdf:parseType="Resource">
                           <xmpG:swatchName>Global pink</xmpG:swatchName>
                           <xmpG:type>PROCESS</xmpG:type>
                           <xmpG:tint>100.000000</xmpG:tint>
                           <xmpG:mode>RGB</xmpG:mode>
                           <xmpG:red>250</xmpG:red>
                           <xmpG:green>174</xmpG:green>
                           <xmpG:blue>255</xmpG:blue>
                        </rdf:li>
                        <rdf:li rdf:parseType="Resource">
                           <xmpG:swatchName>Global Mokka</xmpG:swatchName>
                           <xmpG:type>PROCESS</xmpG:type>
                           <xmpG:tint>100.000000</xmpG:tint>
                           <xmpG:mode>RGB</xmpG:mode>
                           <xmpG:red>91</xmpG:red>
                           <xmpG:green>61</xmpG:green>
                           <xmpG:blue>27</xmpG:blue>
                        </rdf:li>
                        <rdf:li rdf:parseType="Resource">
                           <xmpG:swatchName>Global Kaffee</xmpG:swatchName>
                           <xmpG:type>PROCESS</xmpG:type>
                           <xmpG:tint>100.000000</xmpG:tint>
                           <xmpG:mode>RGB</xmpG:mode>
                           <xmpG:red>168</xmpG:red>
                           <xmpG:green>119</xmpG:green>
                           <xmpG:blue>92</xmpG:blue>
                        </rdf:li>
                     </rdf:Seq>
                  </xmpG:Colorants>
               </rdf:li>
            </rdf:Seq>
         </xmpTPg:SwatchGroups>
      </rdf:Description>
   </rdf:RDF>
</x:xmpmeta>
                                                                                                    
                                                                                                    
                                                                                                    
                                                                                                    
                                                                                                    
                                                                                                    
                                                                                                    
                                                                                                    
                                                                                                    
                                                                                                    
                                                                                                    
                                                                                                    
                                                                                                    
                                                                                                    
                                                                                                    
                                                                                                    
                                                                                                    
                                                                                                    
                                                                                                    
                                                                                                    
                           
<?xpacket end="w"?>
	</metadata>
<g>
	<polygon fill-rule="evenodd" clip-rule="evenodd" fill="#FFFFFF" points="405.5,382.25 405.5,385.75 409,385.75 409,382.25 
		405.5,382.25 405.5,382.25 	"/>
	<polygon fill-rule="evenodd" clip-rule="evenodd" fill="#FFFFFF" points="414.75,382.25 414.75,385.75 418.25,385.75 
		418.25,382.25 414.75,382.25 414.75,382.25 	"/>
	<path fill-rule="evenodd" clip-rule="evenodd" fill="#FFFFFF" d="M361.75,406c-4.5-8.5-4.5-8.5-4.5-8.5c2-0.75,3.75-2.5,3.75-5.5
		c0-3.25-2.5-6-6.5-6c-8,0-8,0-8,0c0,20,0,20,0,20c4,0,4,0,4,0c0-8,0-8,0-8c2.75,0,2.75,0,2.75,0c4,8,4,8,4,8
		C361.75,406,361.75,406,361.75,406L361.75,406z M357,392c0,1.75-1,2.75-2.75,2.75c-3.75,0-3.75,0-3.75,0c0-5.25,0-5.25,0-5.25
		c3.75,0,3.75,0,3.75,0C356,389.5,357,390.5,357,392L357,392z"/>
	<path fill-rule="evenodd" clip-rule="evenodd" fill="#FFFFFF" d="M420.75,406l-7.5-20h-3L403,406h4l1.25-3.5h7.25l1,3.5H420.75
		L420.75,406L420.75,406z M414.25,399.25h-4.75L412,392L414.25,399.25L414.25,399.25L414.25,399.25z"/>
	<path fill-rule="evenodd" clip-rule="evenodd" fill="#FFFFFF" d="M279.5,399.25c0-13.25,0-13.25,0-13.25c-4,0-4,0-4,0
		c0,13,0,13,0,13c0,2.25-1.25,3.75-3.5,3.75c-2,0-3.25-1.5-3.25-3.75c0-13,0-13,0-13c-4,0-4,0-4,0c0,13.25,0,13.25,0,13.25
		c0,4.25,3.25,7,7.25,7C276.25,406.25,279.5,403.5,279.5,399.25L279.5,399.25z"/>
	<polygon fill-rule="evenodd" clip-rule="evenodd" fill="#FFFFFF" points="299.5,406 299.5,386 295.5,386 295.5,398.25 287.5,386 
		284,386 284,406 288,406 288,393.75 296,406 299.5,406 299.5,406 	"/>
	<polygon fill-rule="evenodd" clip-rule="evenodd" fill="#FFFFFF" points="308,406 308,386 304.25,386 304.25,406 308,406 308,406 	
		"/>
	<polygon fill-rule="evenodd" clip-rule="evenodd" fill="#FFFFFF" points="327,386 322.75,386 318.75,399 314.75,386 310.75,386 
		317.25,406 320.25,406 327,386 327,386 	"/>
	<polygon fill-rule="evenodd" clip-rule="evenodd" fill="#FFFFFF" points="342.75,406 342.75,402.5 333.25,402.5 333.25,397.75 
		341.25,397.75 341.25,394.25 333.25,394.25 333.25,389.5 342.75,389.5 342.75,386 329.5,386 329.5,406 342.75,406 342.75,406 	"/>
	<path fill-rule="evenodd" clip-rule="evenodd" fill="#FFFFFF" d="M378.25,400c0-1.5-0.5-3.25-1.75-4.25c-0.75-0.75-2-1.25-3.75-1.5
		c-2.5-0.25-2.5-0.25-2.5-0.25c-0.75-0.25-1.25-0.5-1.75-0.75c-0.25-0.5-0.5-1-0.5-1.5c0-1.25,1-2.5,3-2.5c1.5,0,3,0.25,4.25,1.25
		c2.5-2.25,2.5-2.25,2.5-2.25c-1.75-1.75-3.75-2.5-6.5-2.5c-4.5,0-7,2.5-7,6.25c0,1.5,0.25,2.75,1.25,3.75s2.25,1.5,4,1.75
		c2.5,0.5,2.5,0.5,2.5,0.5c0.75,0,1.25,0.25,1.75,0.5c0.25,0.5,0.5,1,0.5,1.75c0,1.5-1.25,2.5-3.5,2.5c-1.75,0-3.5-0.5-4.75-1.75
		c-2.5,2.5-2.5,2.5-2.5,2.5c1.75,2,4.25,2.75,7.25,2.75C375,406.25,378.25,404,378.25,400L378.25,400z"/>
	<polygon fill-rule="evenodd" clip-rule="evenodd" fill="#FFFFFF" points="385.75,406 385.75,386 382,386 382,406 385.75,406 
		385.75,406 	"/>
	<polygon fill-rule="evenodd" clip-rule="evenodd" fill="#FFFFFF" points="403.75,389.5 403.75,386 389.25,386 389.25,389.5 
		394.5,389.5 394.5,406 398.5,406 398.5,389.5 403.75,389.5 403.75,389.5 	"/>
	<polygon fill-rule="evenodd" clip-rule="evenodd" fill="#FFFFFF" points="434.5,389.5 434.5,386 420,386 420,389.5 425.5,389.5 
		425.5,406 429.25,406 429.25,389.5 434.5,389.5 434.5,389.5 	"/>
	<path fill-rule="evenodd" clip-rule="evenodd" fill="#FFFFFF" d="M279.25,422.75c0-3.25,0.25-5.75-2-8c-1.25-1.5-3.25-2-5.25-2
		c-7.25,0-7.25,0-7.25,0c0,20,0,20,0,20c7.25,0,7.25,0,7.25,0c2,0,4-0.5,5.25-2C279.5,428.5,279.25,425.75,279.25,422.75
		L279.25,422.75z M275.5,422.75c0,3-0.25,4.5-1,5.25c-0.5,0.75-1.5,1.25-2.75,1.25c-3,0-3,0-3,0c0-13,0-13,0-13c3,0,3,0,3,0
		c1.25,0,2.25,0.5,2.75,1.25C275.25,418.25,275.5,419.5,275.5,422.75L275.5,422.75z"/>
	<path fill-rule="evenodd" clip-rule="evenodd" fill="#FFFFFF" d="M298.75,432.75c-4.5-8.5-4.5-8.5-4.5-8.5c2-0.75,3.5-2.5,3.5-5.25
		c0-3.5-2.25-6.25-6.5-6.25c-7.75,0-7.75,0-7.75,0c0,20,0,20,0,20c3.75,0,3.75,0,3.75,0c0-8,0-8,0-8c3,0,3,0,3,0
		c3.75,8,3.75,8,3.75,8C298.75,432.75,298.75,432.75,298.75,432.75L298.75,432.75z M294,419c0,1.5-1.25,2.5-3,2.5
		c-3.75,0-3.75,0-3.75,0c0-5.25,0-5.25,0-5.25c3.75,0,3.75,0,3.75,0C292.75,416.25,294,417.25,294,419L294,419z"/>
	<polygon fill-rule="evenodd" clip-rule="evenodd" fill="#FFFFFF" points="315.25,432.75 315.25,429.25 306,429.25 306,424.5 
		313.75,424.5 313.75,421 306,421 306,416.25 315.25,416.25 315.25,412.75 302,412.75 302,432.75 315.25,432.75 315.25,432.75 	"/>
	<path fill-rule="evenodd" clip-rule="evenodd" fill="#FFFFFF" d="M332.25,427c0-2-0.5-3.25-1.5-4.25s-2.25-1.5-4-1.75
		c-2.25-0.25-2.25-0.25-2.25-0.25c-0.75,0-1.5-0.5-2-0.75c-0.25-0.5-0.5-1-0.5-1.5c0-1.5,1-2.5,3-2.5c1.5,0,3,0.25,4.25,1.25
		c2.5-2.5,2.5-2.5,2.5-2.5c-1.75-1.5-3.75-2.25-6.5-2.25c-4.5,0-7,2.5-7,6c0,1.75,0.5,3.25,1.25,4c1,1,2.25,1.5,4,1.75
		c2.5,0.25,2.5,0.25,2.5,0.25c1,0.25,1.25,0.5,1.75,0.75c0.5,0.5,0.5,1,0.5,1.75c0,1.5-1.25,2.5-3.5,2.5c-1.75,0-3.5-0.5-4.75-1.75
		c-2.5,2.5-2.5,2.5-2.5,2.5c2,2,4.25,2.75,7.25,2.75C329,433,332.25,430.75,332.25,427L332.25,427z"/>
	<path fill-rule="evenodd" clip-rule="evenodd" fill="#FFFFFF" d="M350.5,422.75c0-3.25,0.25-5.75-2-8c-1.25-1.5-3.25-2-5.25-2
		c-7.25,0-7.25,0-7.25,0c0,20,0,20,0,20c7.25,0,7.25,0,7.25,0c2,0,4-0.5,5.25-2C350.75,428.5,350.5,425.75,350.5,422.75
		L350.5,422.75z M346.75,422.75c0,3-0.25,4.5-1,5.25c-0.5,0.75-1.5,1.25-3,1.25c-2.75,0-2.75,0-2.75,0c0-13,0-13,0-13
		c2.75,0,2.75,0,2.75,0c1.5,0,2.5,0.5,3,1.25C346.5,418.25,346.75,419.5,346.75,422.75L346.75,422.75z"/>
	<polygon fill-rule="evenodd" clip-rule="evenodd" fill="#FFFFFF" points="368,432.75 368,429.25 358.75,429.25 358.75,424.5 
		366.5,424.5 366.5,421 358.75,421 358.75,416.25 368,416.25 368,412.75 354.75,412.75 354.75,432.75 368,432.75 368,432.75 	"/>
	<polygon fill-rule="evenodd" clip-rule="evenodd" fill="#FFFFFF" points="387.25,432.75 387.25,412.75 383.25,412.75 383.25,425 
		375.5,412.75 372,412.75 372,432.75 375.75,432.75 375.75,420.5 383.75,432.75 387.25,432.75 387.25,432.75 	"/>
	<polygon fill-rule="evenodd" clip-rule="evenodd" fill="#FFFFFF" points="279.25,362.75 279.25,359.25 264.75,359.25 
		264.75,362.75 270,362.75 270,379.25 274,379.25 274,362.75 279.25,362.75 279.25,362.75 	"/>
	<polygon fill-rule="evenodd" clip-rule="evenodd" fill="#FFFFFF" points="296,379.25 296,375.75 286.75,375.75 286.75,371 
		294.5,371 294.5,367.5 286.75,367.5 286.75,362.75 296,362.75 296,359.25 282.75,359.25 282.75,379.25 296,379.25 296,379.25 	"/>
	<path fill-rule="evenodd" clip-rule="evenodd" fill="#FFFFFF" d="M314.25,373c-4,0-4,0-4,0c-0.5,1.75-1.5,3-3.5,3
		c-1,0-1.75-0.5-2.5-1c-0.75-1-1-2-1-5.75c0-4,0.25-4.75,1-5.75c0.75-0.5,1.5-1,2.5-1c2,0,3,1.25,3.5,2.75c4,0,4,0,4,0
		c-0.75-4-3.75-6.25-7.5-6.25c-2,0-4,0.75-5.25,2.25c-2,2-2,4.5-2,8s0,6,2,8c1.25,1.5,3.25,2.25,5.25,2.25
		C310.5,379.5,313.5,377.25,314.25,373L314.25,373z"/>
	<polygon fill-rule="evenodd" clip-rule="evenodd" fill="#FFFFFF" points="332.5,379.25 332.5,359.25 328.5,359.25 328.5,367.5 
		321.75,367.5 321.75,359.25 318,359.25 318,379.25 321.75,379.25 321.75,371 328.5,371 328.5,379.25 332.5,379.25 332.5,379.25 	
		"/>
	<polygon fill-rule="evenodd" clip-rule="evenodd" fill="#FFFFFF" points="353,379.25 353,359.25 349,359.25 349,371.5 341,359.25 
		337.5,359.25 337.5,379.25 341.5,379.25 341.5,367 349.5,379.25 353,379.25 353,379.25 	"/>
	<polygon fill-rule="evenodd" clip-rule="evenodd" fill="#FFFFFF" points="361.75,379.25 361.75,359.25 358,359.25 358,379.25 
		361.75,379.25 361.75,379.25 	"/>
	<path fill-rule="evenodd" clip-rule="evenodd" fill="#FFFFFF" d="M379.75,373.25c0-1.75-0.5-3.25-1.5-4.25
		c-0.75-0.75-2-1.25-3.75-1.5c-2.5-0.25-2.5-0.25-2.5-0.25c-0.75-0.25-1.5-0.5-1.75-0.75c-0.5-0.5-0.75-1-0.75-1.5
		c0-1.5,1-2.5,3.25-2.5c1.25,0,2.75,0,4,1.25c2.5-2.25,2.5-2.25,2.5-2.25c-1.75-1.75-3.75-2.5-6.5-2.5c-4.25,0-7,2.5-7,6
		c0,1.75,0.5,3,1.5,4s2.25,1.5,4,1.75c2.25,0.25,2.25,0.25,2.25,0.25c1,0.25,1.5,0.5,1.75,0.75c0.5,0.5,0.75,1,0.75,1.75
		c0,1.5-1.25,2.5-3.5,2.5c-2,0-3.75-0.5-5-1.75c-2.5,2.5-2.5,2.5-2.5,2.5c2,2,4.25,2.75,7.5,2.75
		C376.5,379.5,379.75,377.25,379.75,373.25L379.75,373.25z"/>
	<path fill-rule="evenodd" clip-rule="evenodd" fill="#FFFFFF" d="M398,373c-4,0-4,0-4,0c-0.25,1.75-1.5,3-3.5,3
		c-1,0-1.75-0.5-2.5-1c-0.75-1-0.75-2-0.75-5.75c0-4,0-4.75,0.75-5.75c0.75-0.5,1.5-1,2.5-1c2,0,3.25,1.25,3.5,2.75c4,0,4,0,4,0
		c-0.75-4-3.75-6.25-7.5-6.25c-2.25,0-4,0.75-5.25,2.25c-2.25,2-2,4.5-2,8s-0.25,6,2,8c1.25,1.5,3,2.25,5.25,2.25
		C394.25,379.5,397.25,377.25,398,373L398,373z"/>
	<polygon fill-rule="evenodd" clip-rule="evenodd" fill="#FFFFFF" points="416.25,379.25 416.25,359.25 412.25,359.25 412.25,367.5 
		405.5,367.5 405.5,359.25 401.5,359.25 401.5,379.25 405.5,379.25 405.5,371 412.25,371 412.25,379.25 416.25,379.25 
		416.25,379.25 	"/>
	<polygon fill-rule="evenodd" clip-rule="evenodd" fill="#FFFFFF" points="434.5,379.25 434.5,375.75 425.25,375.75 425.25,371 
		433.25,371 433.25,367.5 425.25,367.5 425.25,362.75 434.5,362.75 434.5,359.25 421.25,359.25 421.25,379.25 434.5,379.25 
		434.5,379.25 	"/>
	<path fill-rule="evenodd" clip-rule="evenodd" fill="#FFFFFF" d="M184,388.25h20v23.5h24.5v-23.5h20v20.5l-19.5,19.5h-25.5
		l-19.5-19.5V388.25L184,388.25L184,388.25z M246.5,390.5h-15.75v23.25h-29V390.5h-15.5V408l18.25,18h23.75l18.25-18V390.5
		L246.5,390.5L246.5,390.5z M246,383.75L228.25,366H204.5l-17.75,17.75h21.75v23.5h15.75v-23.5H246L246,383.75L246,383.75z
		 M248.5,386h-22.25v23.5h-20V386H184v-2.75l19.5-19.5H229l19.5,19.5V386L248.5,386L248.5,386L248.5,386z M179.5,381.5v29
		l22.25,22.25h29L253,410.5v-29l-22.25-22.25h-29L179.5,381.5L179.5,381.5L179.5,381.5z M181.75,382.5v27l21,21H230l20.75-21v-27
		l-20.75-21h-27.25L181.75,382.5L181.75,382.5L181.75,382.5z"/>
</g>
</svg>
