<?xml version="1.0" encoding="utf-8"?>
<!-- Generator: Adobe Illustrator 14.0.0, SVG Export Plug-In . SVG Version: 6.00 Build 43363)  -->
<!DOCTYPE svg PUBLIC "-//W3C//DTD SVG 1.1//EN" "http://www.w3.org/Graphics/SVG/1.1/DTD/svg11.dtd" [
	<!ENTITY ns_extend "http://ns.adobe.com/Extensibility/1.0/">
	<!ENTITY ns_ai "http://ns.adobe.com/AdobeIllustrator/10.0/">
	<!ENTITY ns_graphs "http://ns.adobe.com/Graphs/1.0/">
	<!ENTITY ns_vars "http://ns.adobe.com/Variables/1.0/">
	<!ENTITY ns_imrep "http://ns.adobe.com/ImageReplacement/1.0/">
	<!ENTITY ns_sfw "http://ns.adobe.com/SaveForWeb/1.0/">
	<!ENTITY ns_custom "http://ns.adobe.com/GenericCustomNamespace/1.0/">
	<!ENTITY ns_adobe_xpath "http://ns.adobe.com/XPath/1.0/">
]>
<svg version="1.1" id="Layer_1" xmlns:x="&ns_extend;" xmlns:i="&ns_ai;" xmlns:graph="&ns_graphs;"
	 xmlns="http://www.w3.org/2000/svg" xmlns:xlink="http://www.w3.org/1999/xlink" x="0px" y="0px" width="841.891px"
	 height="595.279px" viewBox="0 0 841.891 595.279" enable-background="new 0 0 841.891 595.279" xml:space="preserve">
<metadata>
	<sfw  xmlns="&ns_sfw;">
		<slices></slices>
		<sliceSourceBounds  x="137.704" y="-0.001" width="566.482" height="595.28" bottomLeftOrigin="true"></sliceSourceBounds>
	</sfw>
</metadata>
<path fill="#FFFFFF" d="M638.729,189.456l-54.067-10.054c-1.315-0.247-2.756-1.483-3.2-2.753l-16.572-38.665
	c-0.619-1.194-0.5-3.068,0.263-4.181l31.502-45.913c0.753-1.105,0.604-2.786-0.346-3.736l-39.346-39.346
	c-0.95-0.951-2.628-1.105-3.733-0.346L506.51,76.524c-1.105,0.76-3,0.895-4.2,0.303l-37.481-15.343
	c-1.272-0.421-2.513-1.845-2.763-3.164L451.657,2.398C451.414,1.078,450.115,0,448.772,0h-55.648c-1.339,0-2.638,1.078-2.881,2.397
	L379.837,58.32c-0.25,1.319-1.487,2.743-2.763,3.164L339.59,76.826c-1.204,0.592-3.099,0.457-4.2-0.303l-46.716-32.061
	c-1.108-0.76-2.789-0.605-3.736,0.346l-39.35,39.346c-0.947,0.95-1.104,2.631-0.345,3.736l31.505,45.913
	c0.756,1.112,0.875,2.986,0.26,4.181l-16.576,38.665c-0.441,1.27-1.878,2.506-3.2,2.753l-54.064,10.054
	c-1.321,0.25-2.397,1.546-2.397,2.888l0.004,55.646c0,1.342,1.078,2.647,2.397,2.888l52.738,9.813
	c1.318,0.24,2.729,1.493,3.131,2.773l16.465,41.128c0.589,1.207,0.45,3.095-0.312,4.2l-29.956,43.653
	c-0.757,1.105-0.602,2.789,0.346,3.74l39.352,39.346c0.947,0.943,2.628,1.099,3.736,0.345l42.882-29.433
	c1.104-0.756,2.957-0.815,4.111-0.142l18.911,10.098c1.197,0.611,2.595,0.095,3.108-1.145l38.993-94.219
	c0.517-1.24,0-2.822-1.145-3.522l-4.732-2.897c-0.875-0.533-2.062-1.45-2.993-2.292c-17.073-10.933-28.4-30.058-28.4-51.838
	c0-33.987,27.556-61.539,61.54-61.539s61.536,27.552,61.536,61.539c0,21.78-11.324,40.905-28.4,51.838
	c-0.924,0.842-2.114,1.759-2.986,2.292l-4.732,2.897c-1.139,0.7-1.658,2.282-1.145,3.522l38.99,94.222
	c0.513,1.24,1.907,1.753,3.108,1.145l18.911-10.097c1.157-0.675,3.006-0.618,4.111,0.141l42.885,29.434
	c1.104,0.753,2.789,0.599,3.732-0.346l39.353-39.346c0.95-0.95,1.105-2.635,0.346-3.739l-29.959-43.654
	c-0.757-1.105-0.898-2.993-0.31-4.2l16.465-41.128c0.404-1.279,1.806-2.532,3.128-2.772l52.738-9.814
	c1.315-0.24,2.397-1.546,2.397-2.888l0.006-55.646C641.124,191.002,640.045,189.706,638.729,189.456"/>
<path fill="#FFFFFF" d="M287.671,594.579h11.883v-40.303c0-14.557-10.019-19.451-24.579-19.451c-8.854,0-15.375,2.325-19.917,8.621
	l9.317,7.104c2.095-3.378,5.009-4.548,11.183-4.548c8.502,0,12.113,1.986,12.113,7.574v6.173h-16.426
	c-12.695,0-19.217,8.042-19.217,17.475c0,10.252,7.687,18.057,20.849,18.057c8.038,0,12.116-1.862,14.56-5.943h0.234V594.579z
	 M287.671,573.843c0,9.205-3.378,10.251-13.278,10.251c-8.038,0-11.186-3.496-11.186-7.452c0-4.312,3.263-7.111,10.255-7.111h14.209
	V573.843z"/>
<path fill="#FFFFFF" d="M312.603,594.579h11.88v-35.53c0-8.614,5.71-12.347,11.534-12.347c3.029,0,5.01,0.815,7.805,2.917
	l8.617-10.252c-3.611-2.795-7.567-4.542-12.347-4.542c-6.288,0-11.649,2.332-15.376,6.989h-0.233v-6.288h-11.88V594.579z"/>
<path fill="#FFFFFF" d="M387.976,594.579h11.88v-82.938h-11.88v30.173c-4.427-4.193-9.202-6.989-15.261-6.989
	c-7.223,0-12.462,3.257-15.839,7.69c-3.263,4.187-4.193,8.027-4.193,22.482c0,14.558,0.931,18.398,4.193,22.592
	c3.377,4.428,8.616,7.689,15.839,7.689c6.059,0,11.534-2.802,15.261-6.873V594.579z M376.327,546.702
	c11.067,0,11.649,9.791,11.649,18.296c0,8.621-0.582,18.398-11.649,18.398c-11.183,0-11.765-9.199-11.765-18.398
	C364.562,555.908,365.144,546.702,376.327,546.702"/>
<polygon fill="#FFFFFF" points="460.491,594.579 470.979,594.579 489.845,535.527 477.261,535.527 465.97,576.875 465.73,576.875 
	452.338,535.527 443.718,535.527 430.325,576.875 430.092,576.875 418.791,535.527 406.214,535.527 425.083,594.579 
	435.564,594.579 447.911,553.228 448.144,553.228 "/>
<path fill="#FFFFFF" d="M526.412,594.579h11.883v-40.303c0-14.557-10.021-19.451-24.578-19.451c-8.851,0-15.38,2.325-19.922,8.621
	l9.321,7.104c2.095-3.378,5.003-4.548,11.176-4.548c8.505,0,12.116,1.986,12.116,7.574v6.173h-16.425
	c-12.692,0-19.221,8.042-19.221,17.475c0,10.252,7.689,18.057,20.853,18.057c8.034,0,12.116-1.862,14.563-5.943h0.229v5.242H526.412
	z M526.412,573.843c0,9.205-3.378,10.251-13.277,10.251c-8.035,0-11.183-3.496-11.183-7.452c0-4.312,3.263-7.111,10.251-7.111
	h14.209V573.843L526.412,573.843z"/>
<path fill="#FFFFFF" d="M551.348,594.579h11.876v-35.53c0-8.614,5.703-12.347,11.531-12.347c3.032,0,5.01,0.815,7.805,2.917
	l8.621-10.252c-3.611-2.795-7.575-4.542-12.348-4.542c-6.288,0-11.646,2.332-15.372,6.989h-0.237v-6.288h-11.876V594.579z"/>
<path fill="#FFFFFF" d="M640.085,569.537v-9.791c0-15.258-11.295-24.924-24.339-24.924c-11.416,0-24.345,7.453-24.345,30.396
	c0,24.229,14.094,30.058,26.21,30.058c7.92,0,15.487-2.796,21.312-9.551l-8.621-7.341c-3.496,3.617-8.39,5.709-12.925,5.709
	c-8.157,0-14.094-4.894-14.094-14.557H640.085z M603.284,559.749c0.23-8.969,5.474-13.748,12.462-13.748
	c6.989,0,12.117,4.779,12.462,13.748H603.284z"/>
<path fill="#FFFFFF" d="M137.704,471.717c0,12.811,1.861,17.705,6.403,22.714c3.263,3.611,8.739,7.568,17.941,7.568
	c9.199,0,14.676-3.957,17.938-7.568c4.542-5.009,6.406-9.906,6.406-22.714c0-12.698-1.864-17.589-6.406-22.598
	c-3.263-3.611-8.739-7.575-17.938-7.575c-9.202,0-14.679,3.964-17.941,7.575C139.565,454.131,137.704,459.019,137.704,471.717
	 M174.51,471.832c0,8.506-0.697,10.831-2.91,13.979c-1.75,2.447-5.477,4.312-9.552,4.312c-4.078,0-7.805-1.861-9.551-4.312
	c-2.214-3.147-2.914-5.473-2.914-14.094c0-8.505,0.7-10.837,2.914-13.978c1.746-2.447,5.473-4.312,9.551-4.312
	c4.075,0,7.802,1.861,9.552,4.312C173.813,460.88,174.51,463.212,174.51,471.832"/>
<path fill="#FFFFFF" d="M300.405,476.259v-9.784c0-15.264-11.298-24.931-24.342-24.931c-11.419,0-24.345,7.46-24.345,30.403
	c0,24.224,14.094,30.051,26.206,30.051c7.924,0,15.491-2.795,21.316-9.551l-8.62-7.334c-3.493,3.611-8.384,5.709-12.926,5.709
	c-8.157,0-14.097-4.894-14.097-14.563H300.405L300.405,476.259z M263.598,466.478c0.233-8.976,5.477-13.747,12.465-13.747
	c6.989,0,12.113,4.771,12.462,13.747H263.598z"/>
<path fill="#FFFFFF" d="M310.545,501.298h11.88v-35.169c0-8.041,5.009-12.698,11.765-12.698c6.641,0,11.649,4.657,11.649,12.698
	v35.169h11.88v-39.25c0-13.399-10.482-20.504-19.685-20.504c-6.288,0-11.649,2.332-15.373,6.989h-0.236v-6.288h-11.88V501.298z"/>
<path fill="#FFFFFF" d="M389.842,491.402c7.571,7.104,16.425,10.601,25.976,10.601c13.745,0,24.46-6.637,24.46-18.172
	c0-9.429-4.887-16.889-17.122-17.704l-9.784-0.694c-5.94-0.47-7.802-3.032-7.802-5.594c0-4.072,2.562-7.104,10.13-7.104
	c6.41,0,11.189,2.217,15.846,5.473l7.335-8.613c-5.825-4.895-12.811-8.042-23.184-8.042c-12.462,0-22.013,6.174-22.013,18.172
	c0,10.13,7.222,15.958,17.004,16.773l10.484,0.931c4.082,0.346,7.223,1.632,7.223,5.825c0,5.009-4.897,7.567-11.649,7.567
	c-7.92,0-13.511-2.556-18.635-7.567L389.842,491.402z"/>
<path fill="#FFFFFF" d="M447.033,471.717c0,12.811,1.868,17.705,6.41,22.714c3.263,3.611,8.735,7.568,17.935,7.568
	c9.206,0,14.679-3.957,17.941-7.568c4.542-5.009,6.403-9.906,6.403-22.714c0-12.698-1.861-17.589-6.403-22.598
	c-3.263-3.611-8.735-7.575-17.941-7.575c-9.199,0-14.672,3.964-17.935,7.575C448.901,454.131,447.033,459.019,447.033,471.717
	 M483.84,471.832c0,8.506-0.694,10.831-2.911,13.979c-1.746,2.447-5.473,4.312-9.551,4.312c-4.072,0-7.805-1.861-9.545-4.312
	c-2.217-3.147-2.917-5.473-2.917-14.094c0-8.505,0.7-10.837,2.917-13.978c1.74-2.447,5.473-4.312,9.545-4.312
	c4.078,0,7.805,1.861,9.551,4.312C483.145,460.88,483.84,463.212,483.84,471.832"/>
<path fill="#FFFFFF" d="M505.866,481.502c0,13.393,10.484,20.496,19.803,20.496c6.166,0,11.53-2.331,15.257-6.988h0.23v6.295h11.876
	v-59.06h-11.876v35.175c0,8.035-5.009,12.699-11.652,12.699c-6.753,0-11.762-4.664-11.762-12.699v-35.175h-11.876V481.502
	L505.866,481.502z"/>
<path fill="#FFFFFF" d="M566.063,501.298h11.883v-35.523c0-8.621,5.703-12.347,11.531-12.347c3.032,0,5.009,0.815,7.805,2.91
	l8.62-10.252c-3.617-2.795-7.567-4.542-12.347-4.542c-6.288,0-11.652,2.332-15.379,6.989h-0.23v-6.288h-11.883V501.298z"/>
<path fill="#FFFFFF" d="M643.738,483.949c-2.91,3.611-7.104,6.173-11.991,6.173c-9.666,0-15.379-5.479-15.379-18.296
	c0-12.926,5.709-18.398,15.379-18.398c4.888,0,9.084,2.562,11.991,6.173l8.735-7.805c-5.12-5.943-12.231-10.252-21.197-10.252
	c-13.626,0-26.788,8.621-26.788,30.282c0,21.559,13.162,30.172,26.788,30.172c8.97,0,16.08-4.312,21.197-10.244L643.738,483.949z"/>
<path fill="#FFFFFF" d="M704.186,476.259v-9.784c0-15.264-11.308-24.931-24.345-24.931c-11.423,0-24.346,7.46-24.346,30.403
	c0,24.224,14.094,30.051,26.21,30.051c7.92,0,15.494-2.795,21.312-9.551l-8.62-7.334c-3.496,3.611-8.384,5.709-12.926,5.709
	c-8.156,0-14.093-4.894-14.093-14.563H704.186L704.186,476.259z M667.38,466.478c0.229-8.976,5.473-13.747,12.462-13.747
	c6.988,0,12.109,4.771,12.461,13.747H667.38z"/>
<path fill="#FFFFFF" d="M220.062,490.122c11.183,0,11.765-9.206,11.765-18.29c0-9.205-0.582-18.404-11.765-18.404
	c-11.063,0-11.649,9.784-11.649,18.404C208.413,480.338,208.995,490.122,220.062,490.122 M196.487,594.579V442.248h11.926v6.174
	c3.729-4.079,9.203-6.874,15.261-6.874c7.22,0,12.466,3.263,15.843,7.689c3.26,4.193,4.19,8.035,4.19,22.599
	c0,14.441-0.931,18.289-4.19,22.477c-3.378,4.427-8.623,7.689-15.843,7.689c-6.058,0-10.834-2.796-15.261-6.989l-0.043,46.802
	c3.96-4.657,9.318-6.989,15.606-6.989c9.202,0,19.685,7.104,19.685,20.497v39.257h-11.88v-35.175
	c0-8.042-5.009-12.699-11.649-12.699c-6.756,0-11.762,4.657-11.762,12.699v35.175H196.487z"/>
</svg>
