<?xml version="1.0" encoding="utf-8"?>
<!-- Generator: Adobe Illustrator 14.0.0, SVG Export Plug-In . SVG Version: 6.00 Build 43363)  -->
<!DOCTYPE svg PUBLIC "-//W3C//DTD SVG 1.0//EN" "http://www.w3.org/TR/2001/REC-SVG-20010904/DTD/svg10.dtd">
<svg version="1.0" id="Layer_1" xmlns="http://www.w3.org/2000/svg" xmlns:xlink="http://www.w3.org/1999/xlink" x="0px" y="0px"
	 width="64px" height="64px" viewBox="0 0 64 64" enable-background="new 0 0 64 64" xml:space="preserve">
<g>
	<path fill="#FFFFFF" d="M31.942,0c8.951,0,16.572,3.125,22.857,9.372c3.008,3.009,5.295,6.448,6.857,10.314
		C63.217,23.554,64,27.657,64,32c0,4.38-0.773,8.486-2.314,12.312c-1.543,3.828-3.82,7.211-6.828,10.145
		c-3.123,3.084-6.666,5.447-10.629,7.086C40.267,63.18,36.172,64,31.944,64c-4.229,0-8.276-0.809-12.144-2.43
		c-3.865-1.617-7.333-3.961-10.399-7.027c-3.067-3.066-5.4-6.523-7-10.371C0.8,40.322,0,36.268,0,32c0-4.229,0.81-8.295,2.429-12.2
		c1.618-3.905,3.972-7.4,7.057-10.486C15.58,3.106,23.066,0,31.942,0z M32.058,5.772c-7.314,0-13.468,2.553-18.458,7.657
		c-2.516,2.553-4.448,5.419-5.801,8.6c-1.354,3.181-2.028,6.505-2.028,9.972c0,3.429,0.675,6.733,2.028,9.913
		c1.354,3.184,3.285,6.021,5.801,8.516c2.514,2.496,5.351,4.4,8.515,5.715c3.161,1.314,6.476,1.973,9.943,1.973
		c3.428,0,6.75-0.666,9.973-2c3.219-1.336,6.121-3.258,8.713-5.771c4.99-4.875,7.484-10.99,7.484-18.343
		c0-3.543-0.648-6.895-1.943-10.057c-1.293-3.162-3.18-5.98-5.654-8.458C45.484,8.345,39.295,5.772,32.058,5.772z M31.656,26.688
		l-4.287,2.229c-0.458-0.951-1.019-1.619-1.685-2c-0.667-0.38-1.286-0.571-1.858-0.571c-2.855,0-4.286,1.885-4.286,5.657
		c0,1.714,0.362,3.083,1.085,4.113c0.725,1.029,1.791,1.545,3.201,1.545c1.867,0,3.181-0.916,3.944-2.744l3.941,2
		c-0.838,1.562-2,2.791-3.485,3.686c-1.484,0.896-3.123,1.344-4.914,1.344c-2.857,0-5.163-0.875-6.915-2.629
		c-1.752-1.752-2.628-4.189-2.628-7.313c0-3.048,0.886-5.466,2.656-7.257c1.771-1.79,4.01-2.686,6.716-2.686
		C27.105,22.059,29.942,23.602,31.656,26.688z M50.113,26.688l-4.229,2.229c-0.457-0.951-1.02-1.619-1.686-2
		c-0.668-0.38-1.307-0.571-1.914-0.571c-2.857,0-4.287,1.885-4.287,5.657c0,1.714,0.363,3.083,1.086,4.113s1.789,1.545,3.201,1.545
		c1.865,0,3.18-0.916,3.941-2.744l4,2c-0.875,1.562-2.059,2.791-3.541,3.686c-1.486,0.896-3.105,1.344-4.857,1.344
		c-2.896,0-5.209-0.875-6.941-2.629c-1.736-1.752-2.602-4.189-2.602-7.313c0-3.048,0.885-5.466,2.659-7.257
		c1.77-1.79,4.008-2.686,6.713-2.686C45.617,22.059,48.439,23.602,50.113,26.688z"/>
</g>
</svg>
