<?xml version="1.0" encoding="utf-8"?>
<!-- Generator: Adobe Illustrator 14.0.0, SVG Export Plug-In . SVG Version: 6.00 Build 43363)  -->
<!DOCTYPE svg PUBLIC "-//W3C//DTD SVG 1.1//EN" "http://www.w3.org/Graphics/SVG/1.1/DTD/svg11.dtd" [
	<!ENTITY ns_extend "http://ns.adobe.com/Extensibility/1.0/">
	<!ENTITY ns_ai "http://ns.adobe.com/AdobeIllustrator/10.0/">
	<!ENTITY ns_graphs "http://ns.adobe.com/Graphs/1.0/">
	<!ENTITY ns_vars "http://ns.adobe.com/Variables/1.0/">
	<!ENTITY ns_imrep "http://ns.adobe.com/ImageReplacement/1.0/">
	<!ENTITY ns_sfw "http://ns.adobe.com/SaveForWeb/1.0/">
	<!ENTITY ns_custom "http://ns.adobe.com/GenericCustomNamespace/1.0/">
	<!ENTITY ns_adobe_xpath "http://ns.adobe.com/XPath/1.0/">
]>
<svg version="1.1" id="Ebene_1" xmlns:x="&ns_extend;" xmlns:i="&ns_ai;" xmlns:graph="&ns_graphs;"
	 xmlns="http://www.w3.org/2000/svg" xmlns:xlink="http://www.w3.org/1999/xlink" x="0px" y="0px" width="302px" height="218px"
	 viewBox="0 0 302 218" enable-background="new 0 0 302 218" xml:space="preserve">
<metadata><?xpacket begin="﻿" id="W5M0MpCehiHzreSzNTczkc9d"?>
<x:xmpmeta xmlns:x="adobe:ns:meta/" x:xmptk="Adobe XMP Core 4.2.2-c063 53.352624, 2008/07/30-18:05:41        ">
   <rdf:RDF xmlns:rdf="http://www.w3.org/1999/02/22-rdf-syntax-ns#">
      <rdf:Description rdf:about=""
            xmlns:xmp="http://ns.adobe.com/xap/1.0/"
            xmlns:xmpGImg="http://ns.adobe.com/xap/1.0/g/img/">
         <xmp:CreatorTool>Adobe Illustrator CS4</xmp:CreatorTool>
         <xmp:ModifyDate>2014-09-02T18:27:03+02:00</xmp:ModifyDate>
         <xmp:CreateDate>2014-09-02T18:27:03+02:00</xmp:CreateDate>
         <xmp:MetadataDate>2014-09-02T18:27:03+02:00</xmp:MetadataDate>
         <xmp:Thumbnails>
            <rdf:Alt>
               <rdf:li rdf:parseType="Resource">
                  <xmpGImg:width>256</xmpGImg:width>
                  <xmpGImg:height>176</xmpGImg:height>
                  <xmpGImg:format>JPEG</xmpGImg:format>
                  <xmpGImg:image>/9j/4AAQSkZJRgABAgEASABIAAD/7QAsUGhvdG9zaG9wIDMuMAA4QklNA+0AAAAAABAASAAAAAEA&#xA;AQBIAAAAAQAB/+4ADkFkb2JlAGTAAAAAAf/bAIQABgQEBAUEBgUFBgkGBQYJCwgGBggLDAoKCwoK&#xA;DBAMDAwMDAwQDA4PEA8ODBMTFBQTExwbGxscHx8fHx8fHx8fHwEHBwcNDA0YEBAYGhURFRofHx8f&#xA;Hx8fHx8fHx8fHx8fHx8fHx8fHx8fHx8fHx8fHx8fHx8fHx8fHx8fHx8fHx8f/8AAEQgAsAEAAwER&#xA;AAIRAQMRAf/EAaIAAAAHAQEBAQEAAAAAAAAAAAQFAwIGAQAHCAkKCwEAAgIDAQEBAQEAAAAAAAAA&#xA;AQACAwQFBgcICQoLEAACAQMDAgQCBgcDBAIGAnMBAgMRBAAFIRIxQVEGE2EicYEUMpGhBxWxQiPB&#xA;UtHhMxZi8CRygvElQzRTkqKyY3PCNUQnk6OzNhdUZHTD0uIIJoMJChgZhJRFRqS0VtNVKBry4/PE&#xA;1OT0ZXWFlaW1xdXl9WZ2hpamtsbW5vY3R1dnd4eXp7fH1+f3OEhYaHiImKi4yNjo+Ck5SVlpeYmZ&#xA;qbnJ2en5KjpKWmp6ipqqusra6voRAAICAQIDBQUEBQYECAMDbQEAAhEDBCESMUEFURNhIgZxgZEy&#xA;obHwFMHR4SNCFVJicvEzJDRDghaSUyWiY7LCB3PSNeJEgxdUkwgJChgZJjZFGidkdFU38qOzwygp&#xA;0+PzhJSktMTU5PRldYWVpbXF1eX1RlZmdoaWprbG1ub2R1dnd4eXp7fH1+f3OEhYaHiImKi4yNjo&#xA;+DlJWWl5iZmpucnZ6fkqOkpaanqKmqq6ytrq+v/aAAwDAQACEQMRAD8A9U4q7FXYq7FXYq7FXYq7&#xA;FXYq7FXYq7FXYq7FXYq7FXYq7FXYq7FXYq7FXYq7FXYq7FXYq7FXYq7FXYq7FXYq7FXYq7FXYq7F&#xA;XYq7FXYq7FXYq7FXYq7FXYq7FXYq7FXYq7FXYq7FXYq7FXYq7FXYq7FXYq7FXYq7FXYq7FXYq7FX&#xA;Yq7FXYq7FXYq7FXYq7FXYq7FXYq7FXYq7FXYq7FXYq7FXYq7FXYq7FXYq7FXYq7FXYq7FXYq7FXY&#xA;q7FXYq7FXYq7FXYq7FXYq7FXYq7FXYq7FXYq7FXYq7FXYq7FXYq7FXYq7FXYq7FXYq7FXYq7FXYq&#xA;7FXYq7FXYq7FXYq7FXYq7FXYq7FXYq7FXYq7FXYq7FXYq7FXYq7FXYq7FXYq7FXYq7FXYq7FXYq7&#xA;FXYq7FXYq7FXYq7FXYq7FXYq7FXYq7FXYq7FXYq7FXYq7FXYq7FXYq7FXYq7FXYq7FXYq7FXYq7F&#xA;XYq7FXYq7FXYq7FXYq7FXYq7FXYq7FXYq7FXYq7FXYq7FXYq7FXYq7FXYq7FXYq7FXYq7FXYq7FX&#xA;Yq7FXYq7FXYq7FXYq7FXYq7FXYq7FXYq7FXYq7FXYq7FXYq7FXYq7FXYq7FXYq7FXYq7FXYq7FXY&#xA;q7FXYq7FXYq7FXYq7FXYq7FXYq7FXYq7FXYq7FXYq7FXYq7FXYq7FXYq7FXYq7FXYq7FXYq7FXYq&#xA;7FXYq7FXYq7FXYq7FXYq7FXYq7FXYq7FXYq7FXYq7FXYq7FXYq7FXYq7FXYq7FXYq7FXYq7FXYq7&#xA;FXYq7FXYq7FXYq7FXYq7FXYq7FXYq7FXYq7FXYq7FXYq7FXYq7FXYq7FXYq7FXYq7FXYq7FXYq7F&#xA;XYq7FXYq7FXYq7FXYq7FXYq7FXYq7FXYq7FXYq7FXYq7FXYq7FXYq7FXYq7FXYq7FXYq7FXYq7FX&#xA;Yq7FXYq7FXYq7FXYq7FXYq7FXYq7FXYq7FXYq7FXYq7FXYq7FXYq7FXYq7FXYq7FXYq7FXYq7FXY&#xA;q7FXYq7FXYq7FXYq7FXYq7FXYq7FXYq7FXYq7FXYq7FXYq7FXYq7FXYq7FXYq7FXYq7FXYq7FXYq&#xA;7FXYq7FXYq7FXYq7FXYq7FXYq7FXYq7FXYq7FXYq7FXYq7FXYq7FXYq7FXYq7FXYq7FXYq7FXYq7&#xA;FXYq7FXYq7FXYq7FXYq7FXYq7FXYq7FXYq7FXYq7FXYq7FXYq7FXYq7FXYq7FXYq7FXYq7FXYq7F&#xA;XYq7FXYq7FXYq7FXYq7FXYq7FXYq7FXYq7FXYq7FXYq7FXYq7FXYq7FXYq7FXYq7FXYq7FXYq7FX&#xA;Yq7FXYq7FXYq7FXYq7FXYq7FXYq7FXYq7FXYq7FXYq7FXYq7FXYq7FXYq7FXYq7FXYq7FXYq7FXY&#xA;q7FXYq7FXYq7FXYq7FXYq7FXYq7FXYq7FXYq7FXYq7FXYq7FXYq7FXYq7FXYq7FXYq7FXYq7FXYq&#xA;7FXYq7FXYq7FXYq7FXYq7FXYq7FXYq7FXYq7FXYq7FXYq7FXYq7FXYq7FXYq7FXYq7FXYq7FXYq7&#xA;FXYq7FXYq7FXYq7FXYq7FXYq7FXYq7FXYq7FXYq7FXYq7FXYq7FXYq7FXYq7FXYq7FXYq7FXYq7F&#xA;XYq7FXYq7FXYq7FXYq7FXYq7FXYq7FXYq7FXYq7FXYq7FXYq7FXYq7FXYq7FXYq7FXYq7FXYq7FX&#xA;Yq7FXYq7FXYq7FXYq7FXYq7FXYq7FXYq7FXYq7FXYq7FXYq7FXYq7FXYq7FXYq7FXYq7FX//2Q==</xmpGImg:image>
               </rdf:li>
            </rdf:Alt>
         </xmp:Thumbnails>
      </rdf:Description>
      <rdf:Description rdf:about=""
            xmlns:dc="http://purl.org/dc/elements/1.1/">
         <dc:format>image/svg+xml</dc:format>
      </rdf:Description>
      <rdf:Description rdf:about=""
            xmlns:xmpTPg="http://ns.adobe.com/xap/1.0/t/pg/"
            xmlns:stDim="http://ns.adobe.com/xap/1.0/sType/Dimensions#"
            xmlns:xmpG="http://ns.adobe.com/xap/1.0/g/">
         <xmpTPg:MaxPageSize rdf:parseType="Resource">
            <stDim:w>302.000000</stDim:w>
            <stDim:h>218.000000</stDim:h>
            <stDim:unit>Points</stDim:unit>
         </xmpTPg:MaxPageSize>
         <xmpTPg:NPages>1</xmpTPg:NPages>
         <xmpTPg:HasVisibleTransparency>False</xmpTPg:HasVisibleTransparency>
         <xmpTPg:HasVisibleOverprint>False</xmpTPg:HasVisibleOverprint>
         <xmpTPg:PlateNames>
            <rdf:Seq>
               <rdf:li>Cyan</rdf:li>
               <rdf:li>Magenta</rdf:li>
               <rdf:li>Yellow</rdf:li>
               <rdf:li>Black</rdf:li>
            </rdf:Seq>
         </xmpTPg:PlateNames>
         <xmpTPg:SwatchGroups>
            <rdf:Seq>
               <rdf:li rdf:parseType="Resource">
                  <xmpG:groupName>Standard-Farbfeldgruppe</xmpG:groupName>
                  <xmpG:groupType>0</xmpG:groupType>
                  <xmpG:Colorants>
                     <rdf:Seq>
                        <rdf:li rdf:parseType="Resource">
                           <xmpG:swatchName>Weiﬂ</xmpG:swatchName>
                           <xmpG:mode>RGB</xmpG:mode>
                           <xmpG:type>PROCESS</xmpG:type>
                           <xmpG:red>255</xmpG:red>
                           <xmpG:green>255</xmpG:green>
                           <xmpG:blue>255</xmpG:blue>
                        </rdf:li>
                        <rdf:li rdf:parseType="Resource">
                           <xmpG:swatchName>Schwarz</xmpG:swatchName>
                           <xmpG:mode>RGB</xmpG:mode>
                           <xmpG:type>PROCESS</xmpG:type>
                           <xmpG:red>0</xmpG:red>
                           <xmpG:green>0</xmpG:green>
                           <xmpG:blue>0</xmpG:blue>
                        </rdf:li>
                        <rdf:li rdf:parseType="Resource">
                           <xmpG:swatchName>Purpurrot</xmpG:swatchName>
                           <xmpG:mode>RGB</xmpG:mode>
                           <xmpG:type>PROCESS</xmpG:type>
                           <xmpG:red>151</xmpG:red>
                           <xmpG:green>15</xmpG:green>
                           <xmpG:blue>0</xmpG:blue>
                        </rdf:li>
                        <rdf:li rdf:parseType="Resource">
                           <xmpG:swatchName>Marokkanischer Rost</xmpG:swatchName>
                           <xmpG:mode>RGB</xmpG:mode>
                           <xmpG:type>PROCESS</xmpG:type>
                           <xmpG:red>186</xmpG:red>
                           <xmpG:green>0</xmpG:green>
                           <xmpG:blue>0</xmpG:blue>
                        </rdf:li>
                        <rdf:li rdf:parseType="Resource">
                           <xmpG:swatchName>Magenta</xmpG:swatchName>
                           <xmpG:mode>RGB</xmpG:mode>
                           <xmpG:type>PROCESS</xmpG:type>
                           <xmpG:red>228</xmpG:red>
                           <xmpG:green>27</xmpG:green>
                           <xmpG:blue>91</xmpG:blue>
                        </rdf:li>
                        <rdf:li rdf:parseType="Resource">
                           <xmpG:swatchName>Va Va Va Voom-Rot</xmpG:swatchName>
                           <xmpG:mode>RGB</xmpG:mode>
                           <xmpG:type>PROCESS</xmpG:type>
                           <xmpG:red>255</xmpG:red>
                           <xmpG:green>26</xmpG:green>
                           <xmpG:blue>0</xmpG:blue>
                        </rdf:li>
                        <rdf:li rdf:parseType="Resource">
                           <xmpG:swatchName>Orange</xmpG:swatchName>
                           <xmpG:mode>RGB</xmpG:mode>
                           <xmpG:type>PROCESS</xmpG:type>
                           <xmpG:red>255</xmpG:red>
                           <xmpG:green>153</xmpG:green>
                           <xmpG:blue>0</xmpG:blue>
                        </rdf:li>
                        <rdf:li rdf:parseType="Resource">
                           <xmpG:swatchName>Vanillepudding</xmpG:swatchName>
                           <xmpG:mode>RGB</xmpG:mode>
                           <xmpG:type>PROCESS</xmpG:type>
                           <xmpG:red>254</xmpG:red>
                           <xmpG:green>222</xmpG:green>
                           <xmpG:blue>88</xmpG:blue>
                        </rdf:li>
                        <rdf:li rdf:parseType="Resource">
                           <xmpG:swatchName>Kanariengelb</xmpG:swatchName>
                           <xmpG:mode>RGB</xmpG:mode>
                           <xmpG:type>PROCESS</xmpG:type>
                           <xmpG:red>255</xmpG:red>
                           <xmpG:green>255</xmpG:green>
                           <xmpG:blue>62</xmpG:blue>
                        </rdf:li>
                        <rdf:li rdf:parseType="Resource">
                           <xmpG:swatchName>Kubanische Limone</xmpG:swatchName>
                           <xmpG:mode>RGB</xmpG:mode>
                           <xmpG:type>PROCESS</xmpG:type>
                           <xmpG:red>204</xmpG:red>
                           <xmpG:green>255</xmpG:green>
                           <xmpG:blue>66</xmpG:blue>
                        </rdf:li>
                        <rdf:li rdf:parseType="Resource">
                           <xmpG:swatchName>Getrockneter Salbei</xmpG:swatchName>
                           <xmpG:mode>RGB</xmpG:mode>
                           <xmpG:type>PROCESS</xmpG:type>
                           <xmpG:red>163</xmpG:red>
                           <xmpG:green>195</xmpG:green>
                           <xmpG:blue>128</xmpG:blue>
                        </rdf:li>
                        <rdf:li rdf:parseType="Resource">
                           <xmpG:swatchName>Calypsogr¸n</xmpG:swatchName>
                           <xmpG:mode>RGB</xmpG:mode>
                           <xmpG:type>PROCESS</xmpG:type>
                           <xmpG:red>115</xmpG:red>
                           <xmpG:green>190</xmpG:green>
                           <xmpG:blue>30</xmpG:blue>
                        </rdf:li>
                        <rdf:li rdf:parseType="Resource">
                           <xmpG:swatchName>Springfield-Gr¸n</xmpG:swatchName>
                           <xmpG:mode>RGB</xmpG:mode>
                           <xmpG:type>PROCESS</xmpG:type>
                           <xmpG:red>0</xmpG:red>
                           <xmpG:green>255</xmpG:green>
                           <xmpG:blue>0</xmpG:blue>
                        </rdf:li>
                        <rdf:li rdf:parseType="Resource">
                           <xmpG:swatchName>Weihnachtsgr¸n</xmpG:swatchName>
                           <xmpG:mode>RGB</xmpG:mode>
                           <xmpG:type>PROCESS</xmpG:type>
                           <xmpG:red>1</xmpG:red>
                           <xmpG:green>173</xmpG:green>
                           <xmpG:blue>78</xmpG:blue>
                        </rdf:li>
                        <rdf:li rdf:parseType="Resource">
                           <xmpG:swatchName>Kiefer</xmpG:swatchName>
                           <xmpG:mode>RGB</xmpG:mode>
                           <xmpG:type>PROCESS</xmpG:type>
                           <xmpG:red>0</xmpG:red>
                           <xmpG:green>84</xmpG:green>
                           <xmpG:blue>71</xmpG:blue>
                        </rdf:li>
                        <rdf:li rdf:parseType="Resource">
                           <xmpG:swatchName>Himmelsblau</xmpG:swatchName>
                           <xmpG:mode>RGB</xmpG:mode>
                           <xmpG:type>PROCESS</xmpG:type>
                           <xmpG:red>138</xmpG:red>
                           <xmpG:green>219</xmpG:green>
                           <xmpG:blue>255</xmpG:blue>
                        </rdf:li>
                        <rdf:li rdf:parseType="Resource">
                           <xmpG:swatchName>ƒg‰isches Meer</xmpG:swatchName>
                           <xmpG:mode>RGB</xmpG:mode>
                           <xmpG:type>PROCESS</xmpG:type>
                           <xmpG:red>0</xmpG:red>
                           <xmpG:green>160</xmpG:green>
                           <xmpG:blue>198</xmpG:blue>
                        </rdf:li>
                        <rdf:li rdf:parseType="Resource">
                           <xmpG:swatchName>Jeans</xmpG:swatchName>
                           <xmpG:mode>RGB</xmpG:mode>
                           <xmpG:type>PROCESS</xmpG:type>
                           <xmpG:red>2</xmpG:red>
                           <xmpG:green>122</xmpG:green>
                           <xmpG:blue>187</xmpG:blue>
                        </rdf:li>
                        <rdf:li rdf:parseType="Resource">
                           <xmpG:swatchName>St. Petersburg-Blau</xmpG:swatchName>
                           <xmpG:mode>RGB</xmpG:mode>
                           <xmpG:type>PROCESS</xmpG:type>
                           <xmpG:red>10</xmpG:red>
                           <xmpG:green>80</xmpG:green>
                           <xmpG:blue>255</xmpG:blue>
                        </rdf:li>
                        <rdf:li rdf:parseType="Resource">
                           <xmpG:swatchName>Immergr¸n</xmpG:swatchName>
                           <xmpG:mode>RGB</xmpG:mode>
                           <xmpG:type>PROCESS</xmpG:type>
                           <xmpG:red>128</xmpG:red>
                           <xmpG:green>141</xmpG:green>
                           <xmpG:blue>255</xmpG:blue>
                        </rdf:li>
                        <rdf:li rdf:parseType="Resource">
                           <xmpG:swatchName>Maltesischer Flieder</xmpG:swatchName>
                           <xmpG:mode>RGB</xmpG:mode>
                           <xmpG:type>PROCESS</xmpG:type>
                           <xmpG:red>204</xmpG:red>
                           <xmpG:green>204</xmpG:green>
                           <xmpG:blue>255</xmpG:blue>
                        </rdf:li>
                        <rdf:li rdf:parseType="Resource">
                           <xmpG:swatchName>Leidenschaftliches Pur</xmpG:swatchName>
                           <xmpG:mode>RGB</xmpG:mode>
                           <xmpG:type>PROCESS</xmpG:type>
                           <xmpG:red>186</xmpG:red>
                           <xmpG:green>0</xmpG:green>
                           <xmpG:blue>255</xmpG:blue>
                        </rdf:li>
                        <rdf:li rdf:parseType="Resource">
                           <xmpG:swatchName>Knallrosa</xmpG:swatchName>
                           <xmpG:mode>RGB</xmpG:mode>
                           <xmpG:type>PROCESS</xmpG:type>
                           <xmpG:red>255</xmpG:red>
                           <xmpG:green>102</xmpG:green>
                           <xmpG:blue>255</xmpG:blue>
                        </rdf:li>
                        <rdf:li rdf:parseType="Resource">
                           <xmpG:swatchName>Kaugummirosa</xmpG:swatchName>
                           <xmpG:mode>RGB</xmpG:mode>
                           <xmpG:type>PROCESS</xmpG:type>
                           <xmpG:red>251</xmpG:red>
                           <xmpG:green>174</xmpG:green>
                           <xmpG:blue>255</xmpG:blue>
                        </rdf:li>
                        <rdf:li rdf:parseType="Resource">
                           <xmpG:swatchName>Biskuitporzellan</xmpG:swatchName>
                           <xmpG:mode>RGB</xmpG:mode>
                           <xmpG:type>PROCESS</xmpG:type>
                           <xmpG:red>231</xmpG:red>
                           <xmpG:green>185</xmpG:green>
                           <xmpG:blue>138</xmpG:blue>
                        </rdf:li>
                        <rdf:li rdf:parseType="Resource">
                           <xmpG:swatchName>Milchkaffee</xmpG:swatchName>
                           <xmpG:mode>RGB</xmpG:mode>
                           <xmpG:type>PROCESS</xmpG:type>
                           <xmpG:red>169</xmpG:red>
                           <xmpG:green>119</xmpG:green>
                           <xmpG:blue>93</xmpG:blue>
                        </rdf:li>
                        <rdf:li rdf:parseType="Resource">
                           <xmpG:swatchName>Global Malz</xmpG:swatchName>
                           <xmpG:mode>RGB</xmpG:mode>
                           <xmpG:type>PROCESS</xmpG:type>
                           <xmpG:red>138</xmpG:red>
                           <xmpG:green>100</xmpG:green>
                           <xmpG:blue>74</xmpG:blue>
                        </rdf:li>
                        <rdf:li rdf:parseType="Resource">
                           <xmpG:swatchName>Mokka</xmpG:swatchName>
                           <xmpG:mode>RGB</xmpG:mode>
                           <xmpG:type>PROCESS</xmpG:type>
                           <xmpG:red>90</xmpG:red>
                           <xmpG:green>61</xmpG:green>
                           <xmpG:blue>27</xmpG:blue>
                        </rdf:li>
                        <rdf:li rdf:parseType="Resource">
                           <xmpG:swatchName>Global schwarz</xmpG:swatchName>
                           <xmpG:type>PROCESS</xmpG:type>
                           <xmpG:tint>100.000000</xmpG:tint>
                           <xmpG:mode>RGB</xmpG:mode>
                           <xmpG:red>0</xmpG:red>
                           <xmpG:green>0</xmpG:green>
                           <xmpG:blue>0</xmpG:blue>
                        </rdf:li>
                        <rdf:li rdf:parseType="Resource">
                           <xmpG:swatchName>Global Rost</xmpG:swatchName>
                           <xmpG:type>PROCESS</xmpG:type>
                           <xmpG:tint>100.000000</xmpG:tint>
                           <xmpG:mode>RGB</xmpG:mode>
                           <xmpG:red>185</xmpG:red>
                           <xmpG:green>0</xmpG:green>
                           <xmpG:blue>0</xmpG:blue>
                        </rdf:li>
                        <rdf:li rdf:parseType="Resource">
                           <xmpG:swatchName>Global Orange</xmpG:swatchName>
                           <xmpG:type>PROCESS</xmpG:type>
                           <xmpG:tint>100.000000</xmpG:tint>
                           <xmpG:mode>RGB</xmpG:mode>
                           <xmpG:red>255</xmpG:red>
                           <xmpG:green>153</xmpG:green>
                           <xmpG:blue>0</xmpG:blue>
                        </rdf:li>
                        <rdf:li rdf:parseType="Resource">
                           <xmpG:swatchName>Global gelb</xmpG:swatchName>
                           <xmpG:type>PROCESS</xmpG:type>
                           <xmpG:tint>100.000000</xmpG:tint>
                           <xmpG:mode>RGB</xmpG:mode>
                           <xmpG:red>255</xmpG:red>
                           <xmpG:green>255</xmpG:green>
                           <xmpG:blue>61</xmpG:blue>
                        </rdf:li>
                        <rdf:li rdf:parseType="Resource">
                           <xmpG:swatchName>Global gr¸n</xmpG:swatchName>
                           <xmpG:type>PROCESS</xmpG:type>
                           <xmpG:tint>100.000000</xmpG:tint>
                           <xmpG:mode>RGB</xmpG:mode>
                           <xmpG:red>115</xmpG:red>
                           <xmpG:green>190</xmpG:green>
                           <xmpG:blue>29</xmpG:blue>
                        </rdf:li>
                        <rdf:li rdf:parseType="Resource">
                           <xmpG:swatchName>Global Himmel</xmpG:swatchName>
                           <xmpG:type>PROCESS</xmpG:type>
                           <xmpG:tint>100.000000</xmpG:tint>
                           <xmpG:mode>RGB</xmpG:mode>
                           <xmpG:red>138</xmpG:red>
                           <xmpG:green>218</xmpG:green>
                           <xmpG:blue>255</xmpG:blue>
                        </rdf:li>
                        <rdf:li rdf:parseType="Resource">
                           <xmpG:swatchName>Global Meer</xmpG:swatchName>
                           <xmpG:type>PROCESS</xmpG:type>
                           <xmpG:tint>100.000000</xmpG:tint>
                           <xmpG:mode>RGB</xmpG:mode>
                           <xmpG:red>0</xmpG:red>
                           <xmpG:green>160</xmpG:green>
                           <xmpG:blue>198</xmpG:blue>
                        </rdf:li>
                        <rdf:li rdf:parseType="Resource">
                           <xmpG:swatchName>Global Flieder</xmpG:swatchName>
                           <xmpG:type>PROCESS</xmpG:type>
                           <xmpG:tint>100.000000</xmpG:tint>
                           <xmpG:mode>RGB</xmpG:mode>
                           <xmpG:red>204</xmpG:red>
                           <xmpG:green>204</xmpG:green>
                           <xmpG:blue>255</xmpG:blue>
                        </rdf:li>
                        <rdf:li rdf:parseType="Resource">
                           <xmpG:swatchName>Global Immergr¸n</xmpG:swatchName>
                           <xmpG:type>PROCESS</xmpG:type>
                           <xmpG:tint>100.000000</xmpG:tint>
                           <xmpG:mode>RGB</xmpG:mode>
                           <xmpG:red>128</xmpG:red>
                           <xmpG:green>140</xmpG:green>
                           <xmpG:blue>255</xmpG:blue>
                        </rdf:li>
                        <rdf:li rdf:parseType="Resource">
                           <xmpG:swatchName>Global pink</xmpG:swatchName>
                           <xmpG:type>PROCESS</xmpG:type>
                           <xmpG:tint>100.000000</xmpG:tint>
                           <xmpG:mode>RGB</xmpG:mode>
                           <xmpG:red>250</xmpG:red>
                           <xmpG:green>174</xmpG:green>
                           <xmpG:blue>255</xmpG:blue>
                        </rdf:li>
                        <rdf:li rdf:parseType="Resource">
                           <xmpG:swatchName>Global Mokka</xmpG:swatchName>
                           <xmpG:type>PROCESS</xmpG:type>
                           <xmpG:tint>100.000000</xmpG:tint>
                           <xmpG:mode>RGB</xmpG:mode>
                           <xmpG:red>91</xmpG:red>
                           <xmpG:green>61</xmpG:green>
                           <xmpG:blue>27</xmpG:blue>
                        </rdf:li>
                        <rdf:li rdf:parseType="Resource">
                           <xmpG:swatchName>Global Kaffee</xmpG:swatchName>
                           <xmpG:type>PROCESS</xmpG:type>
                           <xmpG:tint>100.000000</xmpG:tint>
                           <xmpG:mode>RGB</xmpG:mode>
                           <xmpG:red>168</xmpG:red>
                           <xmpG:green>119</xmpG:green>
                           <xmpG:blue>92</xmpG:blue>
                        </rdf:li>
                     </rdf:Seq>
                  </xmpG:Colorants>
               </rdf:li>
            </rdf:Seq>
         </xmpTPg:SwatchGroups>
      </rdf:Description>
      <rdf:Description rdf:about=""
            xmlns:xmpMM="http://ns.adobe.com/xap/1.0/mm/"
            xmlns:stEvt="http://ns.adobe.com/xap/1.0/sType/ResourceEvent#">
         <xmpMM:DerivedFrom rdf:parseType="Resource"/>
         <xmpMM:DocumentID>xmp.did:018011740720681192B0FC2043E5FC06</xmpMM:DocumentID>
         <xmpMM:InstanceID>xmp.iid:018011740720681192B0FC2043E5FC06</xmpMM:InstanceID>
         <xmpMM:OriginalDocumentID>xmp.did:018011740720681192B0FC2043E5FC06</xmpMM:OriginalDocumentID>
         <xmpMM:History>
            <rdf:Seq>
               <rdf:li rdf:parseType="Resource">
                  <stEvt:action>saved</stEvt:action>
                  <stEvt:instanceID>xmp.iid:018011740720681192B0FC2043E5FC06</stEvt:instanceID>
                  <stEvt:when>2014-09-02T18:27:03+02:00</stEvt:when>
                  <stEvt:softwareAgent>Adobe Illustrator CS4</stEvt:softwareAgent>
                  <stEvt:changed>/</stEvt:changed>
               </rdf:li>
            </rdf:Seq>
         </xmpMM:History>
      </rdf:Description>
   </rdf:RDF>
</x:xmpmeta>
                                                                                                    
                                                                                                    
                                                                                                    
                                                                                                    
                                                                                                    
                                                                                                    
                                                                                                    
                                                                                                    
                                                                                                    
                                                                                                    
                                                                                                    
                                                                                                    
                                                                                                    
                                                                                                    
                                                                                                    
                                                                                                    
                                                                                                    
                                                                                                    
                                                                                                    
                                                                                                    
                           
<?xpacket end="w"?>
	</metadata>
<g>
	<polygon fill-rule="evenodd" clip-rule="evenodd" fill="#FFFFFF" points="239.5,157.25 239.5,160.75 243,160.75 243,157.25 
		239.5,157.25 239.5,157.25 	"/>
	<polygon fill-rule="evenodd" clip-rule="evenodd" fill="#FFFFFF" points="248.75,157.25 248.75,160.75 252.25,160.75 
		252.25,157.25 248.75,157.25 248.75,157.25 	"/>
	<path fill-rule="evenodd" clip-rule="evenodd" fill="#FFFFFF" d="M195.75,181c-4.5-8.5-4.5-8.5-4.5-8.5c2-0.75,3.75-2.5,3.75-5.5
		c0-3.25-2.5-6-6.5-6c-8,0-8,0-8,0c0,20,0,20,0,20c4,0,4,0,4,0c0-8,0-8,0-8c2.75,0,2.75,0,2.75,0c4,8,4,8,4,8
		C195.75,181,195.75,181,195.75,181L195.75,181z M191,167c0,1.75-1,2.75-2.75,2.75c-3.75,0-3.75,0-3.75,0c0-5.25,0-5.25,0-5.25
		c3.75,0,3.75,0,3.75,0C190,164.5,191,165.5,191,167L191,167z"/>
	<path fill-rule="evenodd" clip-rule="evenodd" fill="#FFFFFF" d="M254.75,181l-7.5-20h-3L237,181h4l1.25-3.5h7.25l1,3.5H254.75
		L254.75,181L254.75,181z M248.25,174.25h-4.75L246,167L248.25,174.25L248.25,174.25L248.25,174.25z"/>
	<path fill-rule="evenodd" clip-rule="evenodd" fill="#FFFFFF" d="M113.5,174.25c0-13.25,0-13.25,0-13.25c-4,0-4,0-4,0
		c0,13,0,13,0,13c0,2.25-1.25,3.75-3.5,3.75c-2,0-3.25-1.5-3.25-3.75c0-13,0-13,0-13c-4,0-4,0-4,0c0,13.25,0,13.25,0,13.25
		c0,4.25,3.25,7,7.25,7C110.25,181.25,113.5,178.5,113.5,174.25L113.5,174.25z"/>
	<polygon fill-rule="evenodd" clip-rule="evenodd" fill="#FFFFFF" points="133.5,181 133.5,161 129.5,161 129.5,173.25 121.5,161 
		118,161 118,181 122,181 122,168.75 130,181 133.5,181 133.5,181 	"/>
	<polygon fill-rule="evenodd" clip-rule="evenodd" fill="#FFFFFF" points="142,181 142,161 138.25,161 138.25,181 142,181 142,181 	
		"/>
	<polygon fill-rule="evenodd" clip-rule="evenodd" fill="#FFFFFF" points="161,161 156.75,161 152.75,174 148.75,161 144.75,161 
		151.25,181 154.25,181 161,161 161,161 	"/>
	<polygon fill-rule="evenodd" clip-rule="evenodd" fill="#FFFFFF" points="176.75,181 176.75,177.5 167.25,177.5 167.25,172.75 
		175.25,172.75 175.25,169.25 167.25,169.25 167.25,164.5 176.75,164.5 176.75,161 163.5,161 163.5,181 176.75,181 176.75,181 	"/>
	<path fill-rule="evenodd" clip-rule="evenodd" fill="#FFFFFF" d="M212.25,175c0-1.5-0.5-3.25-1.75-4.25c-0.75-0.75-2-1.25-3.75-1.5
		c-2.5-0.25-2.5-0.25-2.5-0.25c-0.75-0.25-1.25-0.5-1.75-0.75c-0.25-0.5-0.5-1-0.5-1.5c0-1.25,1-2.5,3-2.5c1.5,0,3,0.25,4.25,1.25
		c2.5-2.25,2.5-2.25,2.5-2.25c-1.75-1.75-3.75-2.5-6.5-2.5c-4.5,0-7,2.5-7,6.25c0,1.5,0.25,2.75,1.25,3.75s2.25,1.5,4,1.75
		c2.5,0.5,2.5,0.5,2.5,0.5c0.75,0,1.25,0.25,1.75,0.5c0.25,0.5,0.5,1,0.5,1.75c0,1.5-1.25,2.5-3.5,2.5c-1.75,0-3.5-0.5-4.75-1.75
		c-2.5,2.5-2.5,2.5-2.5,2.5c1.75,2,4.25,2.75,7.25,2.75C209,181.25,212.25,179,212.25,175L212.25,175z"/>
	<polygon fill-rule="evenodd" clip-rule="evenodd" fill="#FFFFFF" points="219.75,181 219.75,161 216,161 216,181 219.75,181 
		219.75,181 	"/>
	<polygon fill-rule="evenodd" clip-rule="evenodd" fill="#FFFFFF" points="237.75,164.5 237.75,161 223.25,161 223.25,164.5 
		228.5,164.5 228.5,181 232.5,181 232.5,164.5 237.75,164.5 237.75,164.5 	"/>
	<polygon fill-rule="evenodd" clip-rule="evenodd" fill="#FFFFFF" points="268.5,164.5 268.5,161 254,161 254,164.5 259.5,164.5 
		259.5,181 263.25,181 263.25,164.5 268.5,164.5 268.5,164.5 	"/>
	<path fill-rule="evenodd" clip-rule="evenodd" fill="#FFFFFF" d="M113.25,197.75c0-3.25,0.25-5.75-2-8c-1.25-1.5-3.25-2-5.25-2
		c-7.25,0-7.25,0-7.25,0c0,20,0,20,0,20c7.25,0,7.25,0,7.25,0c2,0,4-0.5,5.25-2C113.5,203.5,113.25,200.75,113.25,197.75
		L113.25,197.75z M109.5,197.75c0,3-0.25,4.5-1,5.25c-0.5,0.75-1.5,1.25-2.75,1.25c-3,0-3,0-3,0c0-13,0-13,0-13c3,0,3,0,3,0
		c1.25,0,2.25,0.5,2.75,1.25C109.25,193.25,109.5,194.5,109.5,197.75L109.5,197.75z"/>
	<path fill-rule="evenodd" clip-rule="evenodd" fill="#FFFFFF" d="M132.75,207.75c-4.5-8.5-4.5-8.5-4.5-8.5c2-0.75,3.5-2.5,3.5-5.25
		c0-3.5-2.25-6.25-6.5-6.25c-7.75,0-7.75,0-7.75,0c0,20,0,20,0,20c3.75,0,3.75,0,3.75,0c0-8,0-8,0-8c3,0,3,0,3,0
		c3.75,8,3.75,8,3.75,8C132.75,207.75,132.75,207.75,132.75,207.75L132.75,207.75z M128,194c0,1.5-1.25,2.5-3,2.5
		c-3.75,0-3.75,0-3.75,0c0-5.25,0-5.25,0-5.25c3.75,0,3.75,0,3.75,0C126.75,191.25,128,192.25,128,194L128,194z"/>
	<polygon fill-rule="evenodd" clip-rule="evenodd" fill="#FFFFFF" points="149.25,207.75 149.25,204.25 140,204.25 140,199.5 
		147.75,199.5 147.75,196 140,196 140,191.25 149.25,191.25 149.25,187.75 136,187.75 136,207.75 149.25,207.75 149.25,207.75 	"/>
	<path fill-rule="evenodd" clip-rule="evenodd" fill="#FFFFFF" d="M166.25,202c0-2-0.5-3.25-1.5-4.25s-2.25-1.5-4-1.75
		c-2.25-0.25-2.25-0.25-2.25-0.25c-0.75,0-1.5-0.5-2-0.75c-0.25-0.5-0.5-1-0.5-1.5c0-1.5,1-2.5,3-2.5c1.5,0,3,0.25,4.25,1.25
		c2.5-2.5,2.5-2.5,2.5-2.5c-1.75-1.5-3.75-2.25-6.5-2.25c-4.5,0-7,2.5-7,6c0,1.75,0.5,3.25,1.25,4c1,1,2.25,1.5,4,1.75
		c2.5,0.25,2.5,0.25,2.5,0.25c1,0.25,1.25,0.5,1.75,0.75c0.5,0.5,0.5,1,0.5,1.75c0,1.5-1.25,2.5-3.5,2.5c-1.75,0-3.5-0.5-4.75-1.75
		c-2.5,2.5-2.5,2.5-2.5,2.5c2,2,4.25,2.75,7.25,2.75C163,208,166.25,205.75,166.25,202L166.25,202z"/>
	<path fill-rule="evenodd" clip-rule="evenodd" fill="#FFFFFF" d="M184.5,197.75c0-3.25,0.25-5.75-2-8c-1.25-1.5-3.25-2-5.25-2
		c-7.25,0-7.25,0-7.25,0c0,20,0,20,0,20c7.25,0,7.25,0,7.25,0c2,0,4-0.5,5.25-2C184.75,203.5,184.5,200.75,184.5,197.75
		L184.5,197.75z M180.75,197.75c0,3-0.25,4.5-1,5.25c-0.5,0.75-1.5,1.25-3,1.25c-2.75,0-2.75,0-2.75,0c0-13,0-13,0-13
		c2.75,0,2.75,0,2.75,0c1.5,0,2.5,0.5,3,1.25C180.5,193.25,180.75,194.5,180.75,197.75L180.75,197.75z"/>
	<polygon fill-rule="evenodd" clip-rule="evenodd" fill="#FFFFFF" points="202,207.75 202,204.25 192.75,204.25 192.75,199.5 
		200.5,199.5 200.5,196 192.75,196 192.75,191.25 202,191.25 202,187.75 188.75,187.75 188.75,207.75 202,207.75 202,207.75 	"/>
	<polygon fill-rule="evenodd" clip-rule="evenodd" fill="#FFFFFF" points="221.25,207.75 221.25,187.75 217.25,187.75 217.25,200 
		209.5,187.75 206,187.75 206,207.75 209.75,207.75 209.75,195.5 217.75,207.75 221.25,207.75 221.25,207.75 	"/>
	<polygon fill-rule="evenodd" clip-rule="evenodd" fill="#FFFFFF" points="113.25,137.75 113.25,134.25 98.75,134.25 98.75,137.75 
		104,137.75 104,154.25 108,154.25 108,137.75 113.25,137.75 113.25,137.75 	"/>
	<polygon fill-rule="evenodd" clip-rule="evenodd" fill="#FFFFFF" points="130,154.25 130,150.75 120.75,150.75 120.75,146 
		128.5,146 128.5,142.5 120.75,142.5 120.75,137.75 130,137.75 130,134.25 116.75,134.25 116.75,154.25 130,154.25 130,154.25 	"/>
	<path fill-rule="evenodd" clip-rule="evenodd" fill="#FFFFFF" d="M148.25,148c-4,0-4,0-4,0c-0.5,1.75-1.5,3-3.5,3
		c-1,0-1.75-0.5-2.5-1c-0.75-1-1-2-1-5.75c0-4,0.25-4.75,1-5.75c0.75-0.5,1.5-1,2.5-1c2,0,3,1.25,3.5,2.75c4,0,4,0,4,0
		c-0.75-4-3.75-6.25-7.5-6.25c-2,0-4,0.75-5.25,2.25c-2,2-2,4.5-2,8s0,6,2,8c1.25,1.5,3.25,2.25,5.25,2.25
		C144.5,154.5,147.5,152.25,148.25,148L148.25,148z"/>
	<polygon fill-rule="evenodd" clip-rule="evenodd" fill="#FFFFFF" points="166.5,154.25 166.5,134.25 162.5,134.25 162.5,142.5 
		155.75,142.5 155.75,134.25 152,134.25 152,154.25 155.75,154.25 155.75,146 162.5,146 162.5,154.25 166.5,154.25 166.5,154.25 	
		"/>
	<polygon fill-rule="evenodd" clip-rule="evenodd" fill="#FFFFFF" points="187,154.25 187,134.25 183,134.25 183,146.5 175,134.25 
		171.5,134.25 171.5,154.25 175.5,154.25 175.5,142 183.5,154.25 187,154.25 187,154.25 	"/>
	<polygon fill-rule="evenodd" clip-rule="evenodd" fill="#FFFFFF" points="195.75,154.25 195.75,134.25 192,134.25 192,154.25 
		195.75,154.25 195.75,154.25 	"/>
	<path fill-rule="evenodd" clip-rule="evenodd" fill="#FFFFFF" d="M213.75,148.25c0-1.75-0.5-3.25-1.5-4.25
		c-0.75-0.75-2-1.25-3.75-1.5c-2.5-0.25-2.5-0.25-2.5-0.25c-0.75-0.25-1.5-0.5-1.75-0.75c-0.5-0.5-0.75-1-0.75-1.5
		c0-1.5,1-2.5,3.25-2.5c1.25,0,2.75,0,4,1.25c2.5-2.25,2.5-2.25,2.5-2.25c-1.75-1.75-3.75-2.5-6.5-2.5c-4.25,0-7,2.5-7,6
		c0,1.75,0.5,3,1.5,4s2.25,1.5,4,1.75c2.25,0.25,2.25,0.25,2.25,0.25c1,0.25,1.5,0.5,1.75,0.75c0.5,0.5,0.75,1,0.75,1.75
		c0,1.5-1.25,2.5-3.5,2.5c-2,0-3.75-0.5-5-1.75c-2.5,2.5-2.5,2.5-2.5,2.5c2,2,4.25,2.75,7.5,2.75
		C210.5,154.5,213.75,152.25,213.75,148.25L213.75,148.25z"/>
	<path fill-rule="evenodd" clip-rule="evenodd" fill="#FFFFFF" d="M232,148c-4,0-4,0-4,0c-0.25,1.75-1.5,3-3.5,3
		c-1,0-1.75-0.5-2.5-1c-0.75-1-0.75-2-0.75-5.75c0-4,0-4.75,0.75-5.75c0.75-0.5,1.5-1,2.5-1c2,0,3.25,1.25,3.5,2.75c4,0,4,0,4,0
		c-0.75-4-3.75-6.25-7.5-6.25c-2.25,0-4,0.75-5.25,2.25c-2.25,2-2,4.5-2,8s-0.25,6,2,8c1.25,1.5,3,2.25,5.25,2.25
		C228.25,154.5,231.25,152.25,232,148L232,148z"/>
	<polygon fill-rule="evenodd" clip-rule="evenodd" fill="#FFFFFF" points="250.25,154.25 250.25,134.25 246.25,134.25 246.25,142.5 
		239.5,142.5 239.5,134.25 235.5,134.25 235.5,154.25 239.5,154.25 239.5,146 246.25,146 246.25,154.25 250.25,154.25 
		250.25,154.25 	"/>
	<polygon fill-rule="evenodd" clip-rule="evenodd" fill="#FFFFFF" points="268.5,154.25 268.5,150.75 259.25,150.75 259.25,146 
		267.25,146 267.25,142.5 259.25,142.5 259.25,137.75 268.5,137.75 268.5,134.25 255.25,134.25 255.25,154.25 268.5,154.25 
		268.5,154.25 	"/>
	<path fill-rule="evenodd" clip-rule="evenodd" fill="#FFFFFF" d="M18,163.25h20v23.5h24.5v-23.5h20v20.5L63,203.25H37.5L18,183.75
		V163.25L18,163.25L18,163.25z M80.5,165.5H64.75v23.25h-29V165.5h-15.5V183l18.25,18h23.75l18.25-18V165.5L80.5,165.5L80.5,165.5z
		 M80,158.75L62.25,141H38.5l-17.75,17.75H42.5v23.5h15.75v-23.5H80L80,158.75L80,158.75z M82.5,161H60.25v23.5h-20V161H18v-2.75
		l19.5-19.5H63l19.5,19.5V161L82.5,161L82.5,161L82.5,161z M13.5,156.5v29l22.25,22.25h29L87,185.5v-29l-22.25-22.25h-29L13.5,156.5
		L13.5,156.5L13.5,156.5z M15.75,157.5v27l21,21H64l20.75-21v-27L64,136.5H36.75L15.75,157.5L15.75,157.5L15.75,157.5z"/>
</g>
<g>
	<polygon fill="#FFFFFF" points="87.975,57.992 87.975,42.166 91.376,42.166 91.376,48.992 96.688,42.166 100.661,42.166 
		94.845,49.258 101.166,57.992 96.929,57.992 91.376,49.914 91.376,57.992 	"/>
	<path fill="#FFFFFF" d="M100.971,50.288c0-2.401,0.557-4.347,1.668-5.839c1.332-1.771,3.314-2.657,5.948-2.657
		c2.458,0,4.316,0.718,5.575,2.152c1.347,1.522,2.019,3.512,2.019,5.97c0,1.186-0.167,2.326-0.504,3.424
		c-0.366,1.156-0.863,2.085-1.493,2.787c-1.347,1.508-3.226,2.261-5.641,2.261c-2.37,0-4.244-0.725-5.619-2.174
		C101.623,54.838,100.971,52.863,100.971,50.288L100.971,50.288z M104.527,50.177c0,1.917,0.396,3.395,1.184,4.435
		c0.644,0.848,1.603,1.273,2.875,1.273c1.332,0,2.319-0.491,2.964-1.471c0.716-1.097,1.074-2.612,1.074-4.544
		c0-1.111-0.13-2.056-0.394-2.831c-0.629-1.873-1.836-2.809-3.622-2.809c-1.229,0-2.202,0.445-2.919,1.338
		C104.915,46.533,104.527,48.069,104.527,50.177L104.527,50.177z"/>
	<polygon fill="#FFFFFF" points="118.442,57.992 118.442,42.122 123.996,42.122 127.354,53.667 130.976,42.122 136.375,42.122 
		136.375,57.992 132.994,57.992 132.994,44.383 128.671,57.992 125.861,57.992 121.625,44.383 121.625,57.992 	"/>
	<polygon fill="#FFFFFF" points="139.162,57.992 139.162,42.122 144.715,42.122 148.073,53.667 151.695,42.122 157.092,42.122 
		157.092,57.992 153.714,57.992 153.714,44.383 149.39,57.992 146.58,57.992 142.344,44.383 142.344,57.992 	"/>
	<path fill="#FFFFFF" d="M160.145,42.166h3.402v9.658c0,1.185,0.159,2.056,0.482,2.613c0.512,0.863,1.5,1.293,2.964,1.293
		c1.448,0,2.472-0.46,3.072-1.382c0.337-0.512,0.505-1.411,0.505-2.7v-9.481h3.314v9.899c0,2.166-0.762,3.798-2.283,4.894
		c-1.243,0.894-2.803,1.34-4.675,1.34c-2.825,0-4.815-0.916-5.97-2.743c-0.542-0.864-0.812-2.167-0.812-3.909V42.166L160.145,42.166
		z"/>
	<polygon fill="#FFFFFF" points="177.217,57.992 177.217,42.122 182.132,42.122 188.08,54.612 188.08,42.122 191.245,42.122 
		191.245,57.992 186.567,57.992 180.42,44.821 180.42,57.992 	"/>
	<polygon fill="#FFFFFF" points="194.041,57.992 194.041,42.078 197.44,42.078 197.44,57.992 	"/>
	<polygon fill="#FFFFFF" points="200.291,57.992 200.291,42.166 203.695,42.166 203.695,48.992 209.005,42.166 212.979,42.166 
		207.163,49.258 213.482,57.992 209.248,57.992 203.695,49.914 203.695,57.992 	"/>
	<path fill="#FFFFFF" d="M219.302,42.122h4.039l5.509,15.869h-3.423l-1.142-3.424h-6.277l-1.186,3.424h-3.248L219.302,42.122
		L219.302,42.122z M218.885,51.999h4.543l-2.192-6.76L218.885,51.999L218.885,51.999z"/>
	<polygon fill="#FFFFFF" points="231.92,57.992 231.92,44.755 227.2,44.755 227.2,42.122 240.062,42.122 240.062,44.755 
		235.345,44.755 235.345,57.992 	"/>
	<polygon fill="#FFFFFF" points="241.625,57.992 241.625,42.078 245.024,42.078 245.024,57.992 	"/>
	<path fill="#FFFFFF" d="M247.332,50.288c0-2.401,0.554-4.347,1.664-5.839c1.333-1.771,3.313-2.657,5.95-2.657
		c2.46,0,4.317,0.718,5.575,2.152c1.347,1.522,2.02,3.512,2.02,5.97c0,1.186-0.169,2.326-0.505,3.424
		c-0.365,1.156-0.863,2.085-1.491,2.787c-1.348,1.508-3.227,2.261-5.643,2.261c-2.37,0-4.244-0.725-5.617-2.174
		C247.98,54.838,247.332,52.863,247.332,50.288L247.332,50.288z M250.885,50.177c0,1.917,0.396,3.395,1.187,4.435
		c0.645,0.848,1.602,1.273,2.875,1.273c1.332,0,2.318-0.491,2.963-1.471c0.718-1.097,1.077-2.612,1.077-4.544
		c0-1.111-0.133-2.056-0.396-2.831c-0.629-1.873-1.835-2.809-3.621-2.809c-1.229,0-2.202,0.445-2.919,1.338
		C251.273,46.533,250.885,48.069,250.885,50.177L250.885,50.177z"/>
	<polygon fill="#FFFFFF" points="265.061,57.992 265.061,42.122 269.977,42.122 275.925,54.612 275.925,42.122 279.087,42.122 
		279.087,57.992 274.41,57.992 268.266,44.821 268.266,57.992 	"/>
	<path fill="#FFFFFF" d="M281.329,52.921h3.466c0,2.004,0.959,3.006,2.877,3.006c0.921,0,1.652-0.2,2.194-0.604
		c0.543-0.402,0.812-0.94,0.812-1.613c0-0.645-0.251-1.112-0.746-1.406c-0.323-0.189-1.074-0.433-2.261-0.724
		c-2.019-0.497-3.468-1.076-4.346-1.735c-0.997-0.745-1.491-1.77-1.491-3.072c0-1.419,0.495-2.568,1.491-3.446
		c1.111-0.98,2.709-1.47,4.786-1.47c2.211,0,3.802,0.622,4.783,1.864c0.601,0.762,0.9,1.743,0.9,2.942h-3.271
		c-0.131-1.61-0.988-2.415-2.57-2.415c-0.788,0-1.422,0.198-1.896,0.593c-0.475,0.395-0.713,0.914-0.713,1.559
		c0,0.672,0.284,1.17,0.854,1.492c0.381,0.22,1.244,0.491,2.593,0.812c1.784,0.439,3.033,0.885,3.751,1.34
		c1.127,0.731,1.691,1.785,1.691,3.161c0,1.493-0.578,2.708-1.735,3.643c-1.229,1.011-2.905,1.516-5.025,1.516
		c-2.619,0-4.398-0.718-5.333-2.152C281.614,55.438,281.343,54.339,281.329,52.921L281.329,52.921z"/>
	<path fill="#FFFFFF" d="M70.356,20.951l-7.68,4.434c-0.777-1.346-1.188-2.878-1.188-4.434c0-4.897,3.972-8.868,8.868-8.868
		s8.867,3.971,8.867,8.868c0,4.895-3.97,8.867-8.867,8.867L70.356,20.951L70.356,20.951z"/>
	<path fill="#FFFFFF" d="M17.632,51.321l7.681,4.434c-0.778,1.346-1.899,2.468-3.247,3.244c-4.241,2.449-9.666,0.996-12.114-3.244
		c-2.448-4.241-0.994-9.666,3.246-12.114c4.241-2.449,9.666-0.995,12.114,3.245L17.632,51.321L17.632,51.321z"/>
	<path fill="#FFFFFF" d="M70.362,81.622v-8.87c1.556,0,3.087,0.413,4.434,1.189c4.24,2.45,5.694,7.873,3.246,12.114
		c-2.448,4.243-7.873,5.695-12.113,3.246c-4.242-2.448-5.694-7.872-3.247-12.114L70.362,81.622L70.362,81.622z"/>
	<polygon fill="#FFFFFF" points="106.454,31.659 106.454,19.601 109.093,19.601 109.093,29.604 114.269,29.604 114.269,31.659 	"/>
	<polygon fill="#FFFFFF" points="115.821,31.659 115.821,19.585 123.904,19.585 123.904,21.554 118.41,21.554 118.41,24.428 
		123.554,24.428 123.554,26.398 118.41,26.398 118.41,29.655 124.088,29.655 124.088,31.659 	"/>
	<polygon fill="#FFFFFF" points="125.911,31.659 125.911,19.585 128.5,19.585 128.5,24.411 133.092,24.411 133.092,19.585 
		135.68,19.585 135.68,31.659 133.092,31.659 133.092,26.365 128.5,26.365 128.5,31.659 	"/>
	<path fill="#FFFFFF" d="M137.849,31.659V19.585h4.626c0.912,0,1.569,0.033,1.971,0.099c0.701,0.111,1.264,0.35,1.686,0.718
		c0.701,0.6,1.053,1.375,1.053,2.32c0,1.493-0.84,2.478-2.521,2.956c0.824,0.078,1.385,0.362,1.686,0.852
		c0.189,0.324,0.352,0.963,0.484,1.921c0.168,1.248,0.293,2.031,0.377,2.355c0.083,0.323,0.203,0.606,0.357,0.852h-2.854
		c-0.168-1.236-0.385-2.633-0.652-4.191c-0.156-0.457-0.59-0.685-1.303-0.685h-2.271v4.876H137.849L137.849,31.659z M140.403,21.488
		v3.374h2.088c0.589,0,1.029-0.112,1.319-0.334c0.445-0.346,0.668-0.812,0.668-1.403c0-0.612-0.211-1.063-0.635-1.353
		c-0.279-0.189-0.846-0.284-1.703-0.284H140.403L140.403,21.488z"/>
	<path fill="#FFFFFF" d="M148.405,27.801h2.639c0,1.525,0.729,2.288,2.188,2.288c0.699,0,1.257-0.154,1.669-0.459
		c0.412-0.306,0.618-0.715,0.618-1.228c0-0.489-0.189-0.846-0.569-1.068c-0.244-0.145-0.819-0.329-1.718-0.551
		c-1.537-0.379-2.64-0.819-3.308-1.319c-0.757-0.568-1.136-1.349-1.136-2.338c0-1.08,0.379-1.954,1.136-2.623
		c0.847-0.745,2.06-1.118,3.64-1.118c1.682,0,2.895,0.473,3.641,1.42c0.457,0.578,0.686,1.323,0.686,2.236h-2.488
		c-0.1-1.224-0.752-1.836-1.954-1.836c-0.601,0-1.082,0.15-1.444,0.45c-0.361,0.3-0.543,0.695-0.543,1.186
		c0,0.512,0.218,0.892,0.652,1.135c0.289,0.167,0.945,0.373,1.97,0.619c1.358,0.334,2.312,0.674,2.856,1.02
		c0.855,0.557,1.285,1.358,1.285,2.404c0,1.137-0.441,2.06-1.318,2.772c-0.937,0.768-2.211,1.152-3.826,1.152
		c-1.991,0-3.344-0.545-4.057-1.637C148.621,29.716,148.416,28.88,148.405,27.801L148.405,27.801z"/>
	<polygon fill="#FFFFFF" points="162.447,31.659 162.447,21.587 158.857,21.587 158.857,19.585 168.642,19.585 168.642,21.587 
		165.052,21.587 165.052,31.659 	"/>
	<path fill="#FFFFFF" d="M170.031,19.617h2.588v7.348c0,0.901,0.123,1.564,0.369,1.987c0.388,0.657,1.14,0.985,2.252,0.985
		c1.104,0,1.883-0.35,2.338-1.052c0.256-0.39,0.385-1.075,0.385-2.054v-7.215h2.521v7.532c0,1.648-0.578,2.89-1.734,3.725
		c-0.949,0.68-2.134,1.019-3.559,1.019c-2.148,0-3.662-0.696-4.543-2.087c-0.412-0.657-0.617-1.648-0.617-2.972V19.617
		L170.031,19.617z"/>
	<polygon fill="#FFFFFF" points="182.938,31.659 182.938,19.585 185.527,19.585 185.527,24.411 190.122,24.411 190.122,19.585 
		192.713,19.585 192.713,31.659 190.122,31.659 190.122,26.365 185.527,26.365 185.527,31.659 	"/>
	<polygon fill="#FFFFFF" points="195.035,31.659 195.035,19.601 197.672,19.601 197.672,29.604 202.85,29.604 202.85,31.659 	"/>
	<path fill="#FFFFFF" d="M110.937,66.972h4.039l5.51,15.87h-3.425l-1.141-3.423h-6.277l-1.186,3.423h-3.248L110.937,66.972
		L110.937,66.972z M110.521,76.848h4.543l-2.195-6.758L110.521,76.848L110.521,76.848z"/>
	<polygon fill="#FFFFFF" points="122.413,82.843 122.413,67.016 125.815,67.016 125.815,73.844 131.126,67.016 135.099,67.016 
		129.283,74.11 135.604,82.843 131.368,82.843 125.815,74.763 125.815,82.843 	"/>
	<path fill="#FFFFFF" d="M137.166,67.016h3.402v9.658c0,1.185,0.162,2.058,0.482,2.613c0.512,0.863,1.5,1.295,2.964,1.295
		c1.448,0,2.472-0.461,3.072-1.384c0.337-0.511,0.505-1.41,0.505-2.698v-9.483h3.314v9.901c0,2.164-0.762,3.795-2.283,4.894
		c-1.243,0.895-2.801,1.338-4.675,1.338c-2.823,0-4.813-0.914-5.97-2.742c-0.541-0.865-0.812-2.167-0.812-3.907V67.016
		L137.166,67.016z"/>
	<path fill="#FFFFFF" d="M153.43,77.772h3.469c0,2.002,0.956,3.007,2.875,3.007c0.921,0,1.652-0.201,2.194-0.604
		c0.541-0.402,0.812-0.941,0.812-1.615c0-0.642-0.248-1.111-0.747-1.403c-0.321-0.191-1.074-0.433-2.259-0.725
		c-2.02-0.498-3.469-1.073-4.348-1.732c-0.994-0.749-1.491-1.772-1.491-3.075c0-1.419,0.497-2.567,1.491-3.447
		c1.113-0.979,2.709-1.469,4.787-1.469c2.209,0,3.803,0.621,4.784,1.864c0.599,0.76,0.899,1.743,0.899,2.941h-3.27
		c-0.132-1.61-0.988-2.414-2.57-2.414c-0.788,0-1.422,0.197-1.897,0.592c-0.476,0.396-0.712,0.916-0.712,1.557
		c0,0.674,0.284,1.172,0.855,1.494c0.38,0.218,1.242,0.489,2.589,0.813c1.786,0.437,3.036,0.885,3.754,1.337
		c1.126,0.732,1.69,1.785,1.69,3.162c0,1.492-0.578,2.705-1.734,3.644c-1.229,1.008-2.904,1.516-5.025,1.516
		c-2.619,0-4.396-0.72-5.334-2.153C153.715,80.289,153.443,79.191,153.43,77.772L153.43,77.772z"/>
	<polygon fill="#FFFFFF" points="171.885,82.843 171.885,69.607 167.166,69.607 167.166,66.972 180.027,66.972 180.027,69.607 
		175.31,69.607 175.31,82.843 	"/>
	<polygon fill="#FFFFFF" points="181.59,82.843 181.59,66.929 184.992,66.929 184.992,82.843 	"/>
	<polygon fill="#FFFFFF" points="187.841,82.843 187.841,67.016 191.245,67.016 191.245,73.844 196.562,67.016 200.532,67.016 
		194.717,74.11 201.038,82.843 196.803,82.843 191.245,74.763 191.245,82.843 	"/>
	<polygon fill="#FFFFFF" points="26.284,51.389 32.249,47.944 65.601,67.26 65.626,74.163 	"/>
	<polygon fill="#FFFFFF" points="51.995,27.562 46.031,30.864 46.084,71.892 52.048,75.391 	"/>
	<polygon fill="#FFFFFF" points="65.632,28.674 26.284,51.389 32.249,54.831 65.62,35.567 	"/>
</g>
</svg>
